<?xml version="1.0" standalone="no"?>
<!DOCTYPE svg PUBLIC "-//W3C//DTD SVG 20010904//EN"
 "http://www.w3.org/TR/2001/REC-SVG-20010904/DTD/svg10.dtd">
<svg version="1.0" xmlns="http://www.w3.org/2000/svg"
 width="240.000000pt" height="325.000000pt" viewBox="0 0 240.000000 325.000000"
 preserveAspectRatio="xMidYMid meet">

<g transform="translate(0.000000,325.000000) scale(0.100000,-0.100000)"
fill="#000000" stroke="none">
<path d="M0 1855 l0 -1395 30 0 c28 0 30 2 30 41 0 28 -4 38 -12 33 -7 -5 -8
-3 -3 6 5 8 3 11 -5 8 -7 -2 -14 -12 -16 -22 -1 -10 -5 -21 -8 -24 -4 -3 -5 5
-3 19 8 53 172 123 327 139 47 5 127 14 178 19 162 17 240 69 374 251 81 108
149 182 195 211 18 11 78 36 135 55 158 53 189 80 299 257 90 148 198 230 354
271 94 25 276 37 407 29 l118 -8 0 752 0 753 -1200 0 -1200 0 0 -1395z m952
1098 c10 -9 18 -25 18 -36 0 -26 -28 -57 -52 -57 -22 0 -58 34 -58 55 0 20 36
55 57 55 9 0 25 -7 35 -17z m478 -99 l0 -54 46 0 c27 0 43 -4 39 -10 -3 -5
-24 -10 -46 -10 l-39 0 0 -128 c0 -138 5 -152 50 -152 30 0 50 16 50 41 0 28
54 65 124 84 l66 18 0 46 c0 57 -22 91 -58 91 -15 0 -34 -4 -41 -9 -12 -8 -11
-13 9 -29 22 -17 23 -23 12 -46 -20 -45 -82 -30 -82 20 0 51 96 103 163 88 79
-17 96 -49 105 -200 l7 -109 28 2 c39 3 33 -23 -10 -46 -36 -18 -82 -13 -107
12 l-23 23 -27 -23 c-38 -32 -105 -32 -143 1 l-28 24 -28 -24 c-36 -31 -104
-33 -138 -5 -23 18 -24 25 -27 170 -3 141 -5 151 -23 151 -10 0 -19 5 -19 10
0 6 9 10 20 10 17 0 20 7 20 49 l0 50 43 9 c23 5 45 7 50 5 4 -2 7 -29 7 -59z
m-182 -61 c19 -5 22 -11 21 -57 0 -44 -2 -48 -12 -32 -44 71 -103 101 -141 73
-33 -24 -14 -61 53 -101 71 -43 121 -98 121 -131 0 -38 -21 -75 -51 -91 -37
-19 -129 -18 -179 2 -39 16 -40 17 -40 65 0 58 13 63 36 14 24 -51 60 -77 103
-73 34 3 36 5 36 38 0 32 -5 39 -65 77 -87 57 -110 85 -110 132 0 42 28 76 76
91 27 9 102 5 152 -7z m-608 -2 c0 -5 -7 -11 -14 -14 -19 -8 -10 -39 36 -131
l35 -69 28 71 c30 77 28 120 -5 129 -11 3 -20 9 -20 14 0 13 148 11 152 -2 3
-8 14 -8 43 0 89 25 85 32 85 -148 0 -128 3 -161 15 -171 8 -7 12 -16 9 -21
-5 -9 -154 -13 -154 -5 0 2 7 17 15 32 10 20 15 60 15 133 0 92 -3 109 -22
138 -13 18 -27 31 -33 30 -21 -7 -55 -72 -107 -202 -29 -74 -57 -135 -63 -135
-5 0 -41 69 -80 153 -38 83 -80 162 -92 175 -13 13 -23 25 -23 27 0 3 41 5 90
5 50 0 90 -4 90 -9z m-180 -495 c0 -222 2 -266 15 -276 28 -24 15 -30 -65 -30
-44 0 -80 3 -80 8 0 4 7 16 15 26 12 16 15 62 15 243 0 215 -1 223 -22 242
-24 23 -22 24 47 40 82 19 75 43 75 -253z m295 47 c97 -26 145 -163 92 -264
-35 -65 -84 -91 -169 -87 -97 5 -150 49 -166 138 -28 155 86 255 243 213z
m1324 -8 c13 -7 15 -95 3 -95 -5 0 -16 16 -25 36 -21 44 -78 71 -114 55 -44
-20 -25 -66 42 -106 73 -42 114 -83 121 -120 8 -43 -16 -88 -55 -105 -35 -14
-140 -9 -183 8 -25 10 -28 16 -28 62 0 57 14 65 34 18 38 -90 154 -116 144
-33 -2 24 -14 37 -53 60 -27 17 -66 46 -87 66 -31 30 -38 43 -38 76 0 73 66
107 177 92 28 -4 57 -10 62 -14z m-1069 -17 c1 -27 2 -30 11 -15 27 46 132 64
169 27 11 -11 20 -25 20 -31 0 -6 17 3 37 20 29 24 47 31 81 31 87 0 102 -29
102 -200 0 -92 3 -120 15 -130 28 -24 15 -30 -65 -30 -44 0 -80 3 -80 8 0 4 7
16 15 26 20 26 21 224 3 248 -21 26 -45 28 -72 7 -25 -20 -26 -24 -26 -134 0
-88 3 -115 15 -125 28 -24 15 -30 -65 -30 -44 0 -80 3 -80 8 0 4 7 16 15 26
20 26 21 224 3 248 -21 26 -45 28 -72 7 -25 -20 -26 -24 -26 -134 0 -88 3
-115 15 -125 28 -24 15 -30 -65 -30 -80 0 -93 6 -65 30 12 10 15 38 15 133 0
110 -2 123 -21 144 -24 24 -25 24 41 42 67 18 80 15 80 -21z m712 3 c33 -29
33 -30 38 -143 3 -62 9 -119 14 -126 5 -9 17 -11 32 -8 32 8 30 -7 -2 -33 -38
-30 -97 -28 -121 3 l-19 23 -28 -23 c-20 -18 -39 -24 -73 -24 -61 0 -93 28
-93 80 0 57 31 80 148 110 42 11 42 11 42 58 0 58 -21 92 -58 92 -46 0 -58
-14 -33 -39 29 -29 15 -65 -27 -69 -64 -7 -62 65 4 108 20 14 46 20 86 20 50
0 62 -4 90 -29z"/>
<path d="M1684 2610 c-65 -26 -72 -120 -8 -120 31 0 41 18 45 78 4 54 1 57
-37 42z"/>
<path d="M650 2322 c-20 -16 -23 -30 -28 -118 -5 -119 8 -181 42 -194 33 -12
62 -2 75 26 15 33 14 239 0 267 -22 42 -53 48 -89 19z"/>
<path d="M1630 2163 c-70 -26 -82 -123 -15 -123 33 0 45 20 45 77 0 53 -2 56
-30 46z"/>
<path d="M2030 1740 c-256 -24 -397 -110 -520 -318 -30 -52 -77 -115 -105
-140 -27 -26 -49 -50 -48 -53 1 -4 -3 -6 -10 -5 -15 1 -201 -61 -240 -81 -50
-25 -109 -86 -192 -198 -90 -120 -173 -205 -229 -231 -19 -10 -32 -22 -29 -27
3 -6 1 -7 -5 -3 -6 4 -30 2 -52 -4 -22 -6 -99 -15 -172 -20 -143 -10 -249 -35
-331 -76 -45 -23 -49 -28 -34 -39 9 -6 14 -15 10 -18 -3 -4 5 -7 18 -7 18 0
21 2 10 9 -24 15 6 41 45 41 l34 0 1 -57 c1 -32 3 -51 6 -42 2 9 15 19 29 22
19 3 28 -1 34 -17 6 -15 9 -6 9 37 1 54 2 57 26 57 18 0 25 -5 25 -20 0 -25
-20 -27 -21 -2 0 15 -1 15 -8 -2 -4 -11 -6 -29 -5 -40 1 -12 3 -27 3 -33 1 -7
10 -13 21 -13 18 0 20 7 20 55 0 73 18 71 23 -3 l3 -57 2 58 c2 54 3 57 27 57
24 0 25 -3 26 -57 0 -40 3 -52 8 -38 l8 20 5 -20 c5 -16 6 -17 7 -2 1 22 28
22 34 -1 4 -16 5 -16 6 1 1 21 31 23 31 2 0 -8 6 -15 14 -15 12 0 14 12 10 55
-2 33 0 55 6 55 5 0 10 -25 10 -55 0 -33 4 -55 11 -55 7 0 10 20 7 55 l-3 55
47 0 c43 0 46 -2 40 -22 -5 -21 -6 -21 -13 -2 -7 16 -8 17 -8 2 -1 -22 -21
-24 -21 -3 0 8 -7 15 -15 15 -11 0 -15 -12 -15 -50 l0 -50 44 0 c34 0 46 4 49
17 4 17 5 17 6 1 0 -10 5 -18 10 -18 5 0 8 25 6 55 -1 41 2 55 12 55 10 0 12
-13 9 -55 -4 -49 -3 -55 15 -55 10 0 19 5 19 10 0 6 -6 10 -12 10 -9 0 -8 4 2
10 12 8 13 12 2 19 -8 4 -14 12 -14 16 0 4 6 12 14 16 11 8 11 10 -1 18 -11 7
-11 9 0 14 10 4 10 6 2 6 -15 1 -18 41 -3 41 12 0 9 22 -5 32 -6 5 -5 8 3 8 8
0 11 11 10 30 -2 20 -7 29 -15 26 -21 -8 -15 -1 19 24 23 17 28 18 18 6 -16
-20 -14 -67 3 -78 5 -3 17 -4 24 -1 12 5 12 7 1 14 -10 7 -9 9 5 9 12 0 17 -8
17 -26 0 -14 -4 -23 -10 -19 -6 3 -10 1 -10 -4 0 -6 5 -11 10 -11 6 0 10 -5
10 -11 0 -5 -4 -7 -10 -4 -5 3 -10 1 -10 -4 0 -6 5 -11 10 -11 6 0 10 -4 10
-10 0 -5 -12 -10 -26 -10 -21 0 -25 4 -19 17 13 34 13 51 0 57 -10 4 -13 -17
-14 -95 -1 -82 1 -99 14 -99 18 0 20 16 3 23 -7 3 -1 6 15 6 18 1 27 -4 27
-14 0 -25 -4 -30 -19 -27 -7 2 -18 -2 -22 -10 -7 -10 -9 -10 -9 2 0 13 -1 13
-10 0 -6 -10 -10 -11 -10 -2 0 17 -20 15 -42 -5 -18 -16 -18 -16 -12 0 3 9 1
17 -4 17 -6 0 -13 -8 -15 -18 -4 -13 -5 -13 -6 -2 -1 12 -13 16 -45 16 -38 1
-46 -2 -49 -20 -4 -20 -4 -20 -6 2 -1 27 -21 30 -21 2 0 -11 -4 -20 -9 -20 -5
0 -8 8 -7 17 1 15 -8 18 -61 18 -59 0 -63 -2 -63 -22 0 -14 -6 -23 -15 -23 -8
0 -18 -1 -22 -2 -5 -1 -11 11 -14 28 l-7 29 -1 -32 c-1 -44 -21 -53 -21 -10 0
29 -3 33 -23 32 -16 -2 -21 -8 -19 -24 1 -13 -2 -30 -8 -39 -7 -13 -9 -8 -10
23 0 33 -4 41 -20 42 -23 2 -27 -12 -5 -21 8 -3 15 -13 15 -22 0 -10 -5 -14
-15 -10 -8 3 -15 1 -15 -4 0 -26 -26 -1 -31 30 -6 32 -6 31 -8 -14 -1 -56 -13
-56 -15 0 -1 21 -7 39 -14 42 -9 3 -13 -4 -12 -19 1 -13 1 -35 0 -49 l-2 -25
-8 25 -8 25 -1 -24 -1 -24 -19 22 c-21 24 -33 16 -25 -17 4 -13 11 -19 21 -15
8 3 19 0 24 -8 7 -11 9 -11 9 -1 0 7 4 11 9 7 6 -3 8 -14 6 -25 -5 -25 -5 -25
48 1 28 14 44 28 42 38 -1 9 0 10 2 4 5 -16 -4 -17 87 7 44 11 143 24 234 29
93 6 189 19 236 31 44 11 81 20 83 20 2 0 2 4 -1 9 -4 5 4 7 16 3 16 -4 19 -2
13 8 -5 9 -4 11 4 6 15 -10 53 3 46 15 -4 5 -13 9 -21 9 -9 0 -12 -5 -8 -12 4
-7 3 -8 -4 -4 -7 4 -12 25 -12 47 l0 39 61 0 c56 0 60 -2 57 -22 -2 -11 3 -23
11 -26 8 -3 11 0 7 7 -5 7 -1 9 11 4 16 -6 16 -5 4 10 -18 23 -6 35 19 19 24
-15 33 -15 25 -2 -4 6 1 7 11 3 12 -4 15 -3 10 5 -5 8 -1 10 10 5 12 -4 15 -3
10 5 -5 8 -1 10 10 5 12 -4 15 -3 10 5 -4 8 -2 10 7 6 12 -4 14 12 14 93 l-1
98 -3 -87 c-2 -49 -5 -88 -7 -88 -2 0 -20 -7 -40 -15 l-36 -15 2 47 c1 44 2
45 5 11 2 -21 8 -38 12 -38 4 0 6 21 4 46 -4 43 -3 45 16 35 29 -16 31 -14 30
27 l-2 37 -7 -35 c-4 -19 -8 -29 -9 -22 0 6 -7 12 -14 12 -19 0 -16 69 3 80
11 7 17 4 22 -13 4 -14 6 -2 7 32 1 55 -5 65 -12 20 -3 -15 -11 -25 -25 -27
-18 -3 -22 -11 -25 -55 -3 -49 -4 -48 -4 10 0 34 4 60 9 57 8 -5 10 1 10 36 0
34 -4 36 -12 5 -8 -30 -8 -30 -9 7 -1 28 2 36 13 32 11 -4 13 5 11 43 -2 27
-8 47 -14 46 -6 -2 -11 4 -11 13 0 8 4 13 9 9 5 -3 12 -1 16 5 3 5 -1 10 -9
10 -9 0 -16 5 -16 10 0 6 13 10 29 10 l29 0 -2 -68 c-1 -38 1 -77 5 -88 5 -10
7 49 6 133 -1 84 1 149 5 145 4 -4 9 -29 11 -57 l3 -50 2 58 c1 31 7 57 12 57
6 0 10 -26 10 -57 0 -41 3 -54 10 -43 8 13 10 13 10 -2 0 -11 -10 -18 -27 -21
l-28 -4 28 -2 c24 -1 41 -21 17 -21 -5 0 -10 -5 -10 -11 0 -5 5 -7 10 -4 6 3
10 -1 10 -10 0 -9 -4 -13 -10 -10 -6 4 -10 -13 -10 -45 0 -28 4 -49 9 -46 5 3
11 -3 14 -14 3 -11 1 -22 -3 -25 -5 -3 -11 3 -13 12 -3 10 -5 1 -6 -20 -1 -28
2 -36 12 -31 9 6 9 5 0 -7 -13 -17 -22 -180 -9 -172 5 4 6 1 2 -5 -4 -7 -3
-12 3 -12 15 0 23 18 11 25 -17 11 -11 34 9 32 11 0 19 -5 18 -10 -1 -5 4 -12
12 -15 8 -2 11 0 7 6 -3 6 -1 14 5 18 8 5 9 3 4 -6 -5 -8 -3 -11 6 -8 8 3 13
10 12 16 -2 6 3 9 10 6 9 -3 13 6 13 31 0 23 -5 35 -14 35 -7 0 -10 -4 -7 -10
3 -5 0 -7 -8 -4 -16 6 -11 44 5 44 5 0 6 -5 3 -10 -3 -6 1 -10 10 -10 9 0 14
4 11 8 -2 4 -1 14 5 22 7 12 9 9 10 -10 1 -14 0 -36 -1 -49 -1 -16 2 -21 11
-16 8 5 10 4 5 -3 -4 -7 -3 -12 3 -12 14 0 23 17 13 24 -8 4 -8 27 -3 69 1 4
6 7 12 7 7 0 10 -12 7 -30 -3 -17 -2 -30 0 -30 14 0 72 53 67 61 -3 5 0 6 7 4
15 -6 61 49 61 72 0 9 4 10 13 2 9 -7 14 -5 19 10 3 12 3 26 -1 32 -4 7 -3 9
3 6 7 -4 21 34 37 100 16 62 23 109 18 112 -5 3 -12 15 -15 26 -3 11 -5 -5 -4
-35 1 -44 -2 -56 -16 -58 -12 -2 -17 3 -17 18 0 12 5 18 10 15 6 -3 10 -1 10
4 0 6 -6 11 -14 11 -21 0 -17 132 4 142 13 6 13 7 -1 7 -26 1 -21 91 4 91 14
0 17 -5 12 -20 -4 -11 -2 -20 4 -20 7 0 11 23 11 57 0 51 -1 55 -14 37 -17
-22 -28 -15 -31 21 -4 32 14 43 32 20 12 -17 13 -14 13 29 0 45 -1 47 -17 35
-16 -13 -17 -12 -4 3 7 10 17 15 22 12 5 -3 9 -90 9 -194 0 -104 4 -191 9
-194 4 -3 13 6 20 20 14 32 14 35 -4 28 -13 -5 -15 14 -15 136 0 77 4 139 8
136 4 -2 7 -36 6 -75 l-3 -71 30 0 c20 0 29 5 29 16 0 11 -6 15 -20 11 -11 -3
-20 -1 -20 4 0 5 12 9 28 9 23 0 27 -4 27 -29 0 -16 -3 -33 -7 -37 -5 -4 -8
-3 -8 2 0 5 -12 9 -27 8 -42 -3 -42 -6 2 -14 48 -10 64 1 61 40 -2 24 2 30 18
30 17 0 18 -2 7 -9 -12 -8 -12 -12 -2 -25 15 -17 36 -22 26 -6 -4 6 1 7 12 3
17 -6 17 -5 2 13 -8 10 -14 32 -13 49 2 16 -2 35 -8 42 -7 9 -7 13 1 13 6 0
10 6 9 12 -2 9 12 13 45 13 l47 0 0 -52 c0 -40 -3 -51 -13 -47 -8 3 -19 -2
-26 -10 -7 -8 -20 -12 -29 -9 -13 5 -14 3 -5 -7 9 -10 19 -10 50 1 58 20 203
15 298 -11 44 -12 89 -24 100 -27 19 -4 20 0 16 149 -2 84 -6 143 -8 131 -3
-13 -11 -23 -19 -23 -8 0 -14 -4 -14 -10 0 -5 7 -7 15 -4 8 4 15 1 15 -5 0 -6
-8 -11 -19 -11 -14 0 -17 -6 -14 -23 4 -22 2 -24 -49 -25 -38 -2 -49 1 -38 8
10 6 11 10 3 10 -23 0 -14 20 10 21 21 1 21 1 -3 9 -14 4 -19 8 -12 9 17 1 15
21 -3 21 -8 0 -15 -6 -15 -14 0 -8 -6 -17 -12 -19 -10 -4 -10 -6 0 -6 17 -1
15 -41 -3 -41 -11 0 -15 12 -16 43 0 32 -2 37 -9 22 -7 -16 -9 -13 -9 16 -1
48 -31 51 -31 2 0 -18 -4 -33 -9 -33 -5 0 -8 8 -7 18 0 9 -5 16 -11 15 -7 -2
-13 4 -13 13 0 8 4 13 9 9 5 -3 13 0 16 6 5 7 -1 9 -16 7 -20 -2 -24 -8 -22
-35 1 -24 -3 -33 -14 -33 -9 0 -13 6 -10 15 4 8 2 17 -3 20 -6 4 -10 -8 -10
-25 0 -24 4 -31 15 -27 19 8 26 -5 14 -23 -6 -10 -9 -11 -9 -2 0 6 -4 12 -10
12 -5 0 -10 -11 -10 -24 0 -22 3 -24 28 -17 52 14 57 10 59 -47 2 -41 -1 -51
-10 -44 -7 5 -24 8 -39 5 -23 -3 -26 -1 -21 14 4 9 8 12 10 6 2 -5 14 -8 27
-6 19 4 22 9 18 31 l-6 27 -7 -25 c-7 -24 -7 -24 -9 5 -1 28 -2 29 -10 8 -6
-15 -15 -21 -25 -17 -11 5 -15 -1 -15 -20 0 -24 -3 -26 -27 -20 -37 9 -45 18
-10 12 21 -4 27 -1 27 13 0 11 -5 19 -11 19 -6 0 -9 7 -5 15 8 21 -11 19 -23
-2 -9 -16 -10 -15 -8 5 1 16 8 22 24 22 19 0 22 5 21 35 -1 19 -6 35 -11 35
-5 0 -4 7 3 15 9 10 9 15 1 15 -6 0 -11 7 -11 16 0 9 5 12 12 8 7 -4 8 -3 4 4
-4 7 -18 12 -32 12 -23 0 -24 -3 -24 -60 0 -53 -2 -60 -20 -60 -15 0 -20 7
-20 25 0 21 -5 25 -30 25 -22 0 -28 4 -24 15 6 15 -4 19 -38 16 -11 -1 -18 4
-18 14 0 11 6 14 24 9 13 -3 27 -1 30 5 5 7 -5 11 -25 11 -18 0 -29 3 -26 6 3
4 2 15 -4 26 -10 18 -8 18 11 8 11 -6 18 -14 16 -18 -3 -5 5 -8 17 -9 12 0 16
1 9 4 -10 4 -10 8 -1 19 6 7 9 20 6 28 -4 10 -1 13 7 10 7 -3 20 1 27 8 19 17
59 21 60 5 0 -6 4 -3 9 8 7 17 9 17 9 3 1 -24 17 -23 24 2 3 11 10 20 16 20 6
0 11 -9 11 -20 0 -11 4 -20 8 -20 5 0 8 10 8 21 -1 12 5 24 13 27 10 3 13 -2
9 -22 -3 -14 -1 -26 3 -26 5 0 9 10 10 23 1 21 1 21 9 -3 l8 -25 2 25 c1 14 2
29 1 33 -1 5 3 6 9 2 5 -3 10 -17 10 -31 0 -15 6 -24 15 -24 10 0 15 10 15 29
0 27 3 30 38 33 20 2 63 1 95 0 52 -3 57 -6 57 -27 0 -13 -6 -26 -12 -28 -8
-3 -6 -6 5 -6 12 -1 17 7 17 29 0 28 2 30 38 30 27 0 33 -3 22 -10 -9 -6 -10
-10 -3 -10 6 0 14 -10 16 -22 4 -20 4 -20 6 4 0 15 6 30 13 34 6 4 9 3 6 -2
-4 -5 5 -9 18 -9 23 0 32 9 17 18 -17 9 -283 14 -363 7z m17 -47 c-3 -10 -5
-4 -5 12 0 17 2 24 5 18 2 -7 2 -21 0 -30z m-351 -72 c-4 -5 0 -11 6 -14 7 -2
10 -8 6 -12 -4 -4 -15 -5 -24 -1 -13 5 -14 9 -4 21 14 16 25 20 16 6z m-36
-24 c0 -2 -15 -16 -32 -33 l-33 -29 29 33 c28 30 36 37 36 29z m20 -31 c0 -8
-6 -17 -12 -19 -10 -4 -9 -8 2 -16 13 -9 13 -11 -1 -11 -20 0 -31 34 -16 49
15 15 27 14 27 -3z m25 5 c3 -5 1 -12 -5 -16 -5 -3 -10 1 -10 9 0 18 6 21 15
7z m190 0 c3 -5 1 -12 -5 -16 -5 -3 -10 1 -10 9 0 18 6 21 15 7z m-150 -41
c-3 -5 -12 -10 -18 -10 -7 0 -6 4 3 10 19 12 23 12 15 0z m-118 -52 c-3 -7 -5
-2 -5 12 0 14 2 19 5 13 2 -7 2 -19 0 -25z m30 0 c-3 -7 -5 -2 -5 12 0 14 2
19 5 13 2 -7 2 -19 0 -25z m86 17 c4 -8 3 -16 -1 -19 -4 -3 -9 4 -9 15 -2 23
3 25 10 4z m54 -5 c-1 -11 -5 -20 -9 -20 -4 0 -8 9 -8 20 0 11 4 20 9 20 6 0
9 -9 8 -20z m233 0 c0 -11 -4 -20 -8 -20 -4 0 -8 9 -9 20 -1 11 2 20 8 20 5 0
9 -9 9 -20z m37 -12 c-3 -7 -5 -2 -5 12 0 14 2 19 5 13 2 -7 2 -19 0 -25z
m183 12 c0 -5 -2 -10 -4 -10 -3 0 -8 5 -11 10 -3 6 -1 10 4 10 6 0 11 -4 11
-10z m-660 -12 c0 -6 -6 -8 -12 -5 -7 2 -19 -3 -26 -12 -11 -14 -12 -13 -3 5
10 20 41 29 41 12z m111 -63 l-9 -30 -1 28 c-1 19 -6 27 -18 27 -15 0 -16 -2
-3 -10 13 -9 13 -11 0 -19 -17 -11 -31 4 -23 25 5 14 43 24 55 14 4 -3 3 -19
-1 -35z m59 23 c0 -5 -5 -6 -11 -3 -6 4 -10 1 -8 -6 1 -8 1 -21 0 -29 -1 -13
-3 -13 -11 1 -7 12 -7 37 -1 56 3 7 31 -11 31 -19z m352 2 c6 -13 7 -13 7 1 1
12 11 15 49 14 83 -4 82 -4 82 -30 0 -17 -4 -23 -14 -19 -24 9 -27 -14 -4 -32
15 -10 17 -14 6 -11 -10 4 -20 2 -23 -3 -4 -6 3 -10 14 -10 12 0 21 -5 21 -11
0 -6 -7 -9 -15 -6 -8 4 -17 3 -19 -2 -5 -7 -42 -7 -56 0 -3 1 -9 3 -15 4 -5 2
-14 4 -20 5 -5 1 4 6 20 10 l30 8 -27 1 c-16 0 -28 5 -28 10 0 12 30 22 42 14
7 -3 8 -1 4 6 -4 6 -16 9 -27 6 -14 -5 -19 -1 -20 12 -1 10 -5 1 -8 -20 -8
-50 -25 -52 -29 -3 -3 29 -6 36 -13 25 -7 -11 -9 -8 -10 11 0 23 -1 23 -9 5
-8 -19 -9 -19 -9 3 -1 23 24 31 32 10 3 -8 6 -6 6 5 1 20 23 18 33 -3z m-581
-19 c-6 -10 -7 -22 -3 -26 4 -5 1 -5 -6 -1 -9 5 -9 12 -2 27 6 10 13 19 16 19
2 0 0 -8 -5 -19z m-31 -50 c-7 -13 -7 -21 0 -24 6 -3 5 -4 -2 -3 -11 2 -58
-44 -58 -58 0 -3 17 -6 38 -7 29 0 32 -2 17 -8 -11 -5 -29 -5 -40 -1 -24 9
-79 -25 -69 -42 5 -7 2 -8 -5 -4 -8 6 5 26 42 64 29 32 59 67 66 80 6 12 14
22 17 22 2 0 0 -9 -6 -19z m86 -8 c-3 -3 -13 -2 -23 2 -17 7 -17 8 2 15 19 7
34 -5 21 -17z m119 9 c-10 -10 -55 -8 -55 3 0 7 12 10 30 7 17 -2 28 -7 25
-10z m365 5 c0 -8 -7 -14 -15 -14 -11 0 -12 4 -4 14 6 7 13 13 15 13 2 0 4 -6
4 -13z m-530 -1 c0 -3 -4 -8 -10 -11 -5 -3 -10 -1 -10 4 0 6 5 11 10 11 6 0
10 -2 10 -4z m210 -10 c-7 -7 -14 -6 -21 1 -9 9 -7 12 9 10 14 -1 18 -5 12
-11z m-216 -56 c0 -22 -3 -43 -7 -46 -4 -4 -7 14 -7 39 0 26 3 47 8 47 4 0 7
-18 6 -40z m-24 -8 c0 -4 -9 -8 -20 -8 -11 0 -20 4 -20 8 0 4 9 8 20 8 11 0
20 -4 20 -8z m22 -81 c-3 -22 -8 -28 -20 -23 -10 4 -12 7 -4 10 7 2 12 10 12
17 0 9 -15 15 -42 18 -43 3 -42 4 8 5 51 2 51 2 46 -27z m-125 -18 c-3 -10 -5
-4 -5 12 0 17 2 24 5 18 2 -7 2 -21 0 -30z m-66 -60 c-2 -53 -5 -63 -12 -45
-5 13 -6 40 -3 60 3 21 6 42 6 49 1 7 4 11 7 9 3 -2 4 -35 2 -73z m46 61 c-3
-3 -12 -4 -19 -1 -8 3 -5 6 6 6 11 1 17 -2 13 -5z m3 -69 c0 -30 -4 -55 -9
-55 -12 0 -21 46 -16 80 4 32 3 30 15 30 6 0 10 -25 10 -55z m-80 41 c0 -3 -4
-8 -10 -11 -5 -3 -10 -1 -10 4 0 6 5 11 10 11 6 0 10 -2 10 -4z m-83 -73 c-2
-16 -4 -5 -4 22 0 28 2 40 4 28 2 -13 2 -35 0 -50z m33 20 c0 -25 -3 -43 -7
-39 -5 4 -8 25 -8 47 0 21 3 39 8 39 4 0 7 -21 7 -47z m-102 -34 c-1 -47 -2
-49 -29 -49 -21 0 -29 5 -28 18 0 10 3 12 6 5 13 -35 23 5 14 61 0 4 -13 1
-28 -8 l-28 -17 23 20 c13 11 30 17 39 14 11 -4 14 -2 9 5 -5 8 -2 10 8 6 11
-4 15 -19 14 -55z m148 26 c-6 -24 -26 -36 -26 -15 0 6 5 10 10 10 6 0 9 3 9
8 -3 17 1 35 7 29 4 -3 4 -18 0 -32z m101 3 c-3 -7 -5 -2 -5 12 0 14 2 19 5
13 2 -7 2 -19 0 -25z m70 0 c-3 -7 -5 -2 -5 12 0 14 2 19 5 13 2 -7 2 -19 0
-25z m50 0 c-3 -7 -5 -2 -5 12 0 14 2 19 5 13 2 -7 2 -19 0 -25z m-420 -30
c-3 -8 -6 -5 -6 6 -1 11 2 17 5 13 3 -3 4 -12 1 -19z m333 12 c0 -5 -4 -10
-10 -10 -5 0 -10 5 -10 10 0 6 5 10 10 10 6 0 10 -4 10 -10z m-380 -3 c0 -2
-17 -19 -37 -38 l-38 -34 34 38 c33 34 41 42 41 34z m24 -42 c3 -8 1 -15 -4
-15 -6 0 -10 7 -10 15 0 8 2 15 4 15 2 0 6 -7 10 -15z m176 0 c0 -8 -4 -15 -8
-15 -5 0 -9 7 -9 15 0 8 4 15 9 15 4 0 8 -7 8 -15z m80 0 c0 -8 -4 -15 -10
-15 -5 0 -7 7 -4 15 4 8 8 15 10 15 2 0 4 -7 4 -15z m50 0 c0 -8 -7 -15 -15
-15 -9 0 -12 6 -9 15 4 8 10 15 15 15 5 0 9 -7 9 -15z m-87 -12 c-7 -2 -19 -2
-25 0 -7 3 -2 5 12 5 14 0 19 -2 13 -5z m274 1 c-3 -3 -12 -4 -19 -1 -8 3 -5
6 6 6 11 1 17 -2 13 -5z m-547 -24 c0 -5 -7 -10 -16 -10 -8 0 -12 5 -9 10 3 6
10 10 16 10 5 0 9 -4 9 -10z m60 -1 c0 -5 -9 -9 -20 -9 -11 0 -20 4 -20 8 0 4
9 8 20 9 11 1 20 -2 20 -8z m170 1 c0 -5 -4 -10 -10 -10 -5 0 -10 5 -10 10 0
6 5 10 10 10 6 0 10 -4 10 -10z m90 0 c0 -5 -18 -10 -40 -10 -22 0 -40 5 -40
10 0 6 18 10 40 10 22 0 40 -4 40 -10z m40 0 c0 -5 -7 -10 -15 -10 -8 0 -15 5
-15 10 0 6 7 10 15 10 8 0 15 -4 15 -10z m50 0 c0 -5 -4 -10 -10 -10 -5 0 -10
5 -10 10 0 6 5 10 10 10 6 0 10 -4 10 -10z m140 0 c0 -5 -7 -10 -15 -10 -8 0
-15 5 -15 10 0 6 7 10 15 10 8 0 15 -4 15 -10z m-595 -10 c-5 -9 15 -15 38
-11 4 0 7 -6 7 -14 0 -8 -3 -14 -7 -14 -22 4 -43 -2 -43 -11 0 -6 11 -8 25 -4
22 5 25 3 25 -21 0 -24 -3 -26 -25 -21 -18 5 -25 2 -25 -9 0 -8 6 -15 14 -15
21 0 46 -28 40 -45 -4 -8 -10 -12 -15 -9 -5 3 -9 0 -9 -5 0 -6 -8 -12 -17 -12
-17 -1 -17 -2 0 -6 9 -2 15 -8 12 -13 -3 -5 2 -16 11 -24 12 -12 12 -16 2 -17
-7 0 -4 -4 7 -9 l20 -9 -20 0 c-17 -1 -17 -3 -5 -11 13 -9 13 -10 0 -10 -13 0
-13 -1 0 -10 11 -7 12 -10 2 -10 -10 0 -10 -4 2 -15 15 -16 11 -49 -5 -39 -16
10 -9 -8 9 -23 16 -14 16 -14 0 -9 -10 3 -18 1 -18 -4 0 -6 5 -10 10 -10 6 0
10 -4 10 -10 0 -6 -27 -10 -60 -10 -47 0 -60 3 -60 15 0 8 -8 16 -17 16 -17 1
-17 2 0 6 9 2 17 13 17 24 0 11 -7 19 -17 19 -11 0 -3 8 17 18 25 12 30 18 17
20 -9 2 -17 12 -17 23 0 11 -7 19 -17 20 -17 1 -17 2 0 6 9 2 17 11 17 19 0 9
5 12 11 8 6 -3 15 0 20 7 5 8 9 9 9 3 0 -6 11 -11 25 -11 14 0 25 3 25 8 0 5
-7 9 -15 9 -9 0 -15 9 -15 25 0 14 -4 25 -10 25 -5 0 -10 -6 -10 -12 0 -9 -4
-8 -10 2 -10 16 -14 8 -11 -22 1 -10 -3 -18 -8 -18 -6 0 -11 13 -11 29 0 20
-6 30 -19 34 -24 6 -56 -26 -45 -45 4 -7 3 -10 -1 -5 -9 8 -47 -22 -40 -33 2
-4 -2 -7 -10 -7 -8 0 5 23 31 53 33 38 50 51 64 47 16 -4 20 0 20 17 0 20 -2
21 -17 9 -12 -10 -11 -5 5 17 17 25 27 30 47 26 15 -2 25 0 25 7 0 10 -14 15
-34 12 -9 -2 0 12 33 52 15 18 26 23 16 7z m100 -30 c-3 -5 -13 -6 -21 -3 -12
4 -13 8 -3 14 15 9 32 2 24 -11z m175 5 c0 -8 -4 -15 -10 -15 -5 0 -10 7 -10
15 0 8 5 15 10 15 6 0 10 -7 10 -15z m45 5 c5 -8 11 -8 20 0 9 8 14 7 18 -4 6
-14 3 -14 -66 -7 -11 1 2 21 13 21 5 0 12 -5 15 -10z m85 -5 c0 -8 -4 -15 -9
-15 -13 0 -22 16 -14 24 11 11 23 6 23 -9z m17 -7 c-3 -8 -6 -5 -6 6 -1 11 2
17 5 13 3 -3 4 -12 1 -19z m33 13 c0 -6 -4 -13 -10 -16 -5 -3 -10 1 -10 9 0 9
5 16 10 16 6 0 10 -4 10 -9z m87 -13 c-3 -8 -6 -5 -6 6 -1 11 2 17 5 13 3 -3
4 -12 1 -19z m43 6 c0 -8 -5 -12 -10 -9 -6 4 -8 11 -5 16 9 14 15 11 15 -7z
m-310 -34 c0 -5 -5 -10 -11 -10 -5 0 -7 5 -4 10 3 6 8 10 11 10 2 0 4 -4 4
-10z m87 -5 c4 -15 -15 -41 -24 -31 -4 5 -2 11 5 13 6 3 9 9 6 15 -4 6 -12 1
-19 -12 -8 -15 -15 -19 -19 -11 -4 6 -2 11 3 11 6 0 11 5 11 11 0 5 -5 7 -12
3 -6 -4 -8 -3 -5 3 8 13 49 11 54 -2z m43 5 c0 -5 -4 -10 -9 -10 -6 0 -13 5
-16 10 -3 6 1 10 9 10 9 0 16 -4 16 -10z m17 -27 c-3 -10 -5 -4 -5 12 0 17 2
24 5 18 2 -7 2 -21 0 -30z m120 0 c-3 -10 -5 -4 -5 12 0 17 2 24 5 18 2 -7 2
-21 0 -30z m-267 -3 c0 -5 -2 -10 -4 -10 -3 0 -8 5 -11 10 -3 6 -1 10 4 10 6
0 11 -4 11 -10z m130 0 c0 -5 -7 -10 -15 -10 -8 0 -15 5 -15 10 0 6 7 10 15
10 8 0 15 -4 15 -10z m-308 -63 c-5 -18 -7 -19 -10 -4 -2 9 -9 17 -15 17 -7 0
-6 4 3 9 20 14 29 5 22 -22z m178 6 c0 -22 -2 -25 -10 -13 -13 20 -13 40 0 40
6 0 10 -12 10 -27z m84 4 c-1 -10 -2 -25 -3 -34 -1 -15 -3 -15 -16 3 -8 10
-15 16 -15 12 0 -5 -8 0 -18 10 -21 20 -14 28 25 26 20 0 28 -6 27 -17z m46
-2 c0 -16 -6 -25 -15 -25 -13 0 -15 17 -6 48 1 1 6 2 11 2 6 0 10 -11 10 -25z
m45 16 c3 -5 1 -12 -5 -16 -5 -3 -10 1 -10 9 0 18 6 21 15 7z m75 -25 c0 -9
-40 -13 -46 -5 -3 5 6 9 20 9 14 0 26 -2 26 -4z m-483 -58 c-3 -8 -6 -5 -6 6
-1 11 2 17 5 13 3 -3 4 -12 1 -19z m380 0 c-3 -8 -6 -5 -6 6 -1 11 2 17 5 13
3 -3 4 -12 1 -19z m-326 -46 c-4 -68 -13 -67 -10 1 1 31 5 55 8 52 3 -3 4 -27
2 -53z m177 1 c1 -50 0 -55 -10 -33 l-11 25 -7 -25 c-6 -19 -8 -13 -8 25 0 36
2 43 7 25 6 -21 8 -22 14 -7 3 9 4 24 1 32 -4 8 -2 15 3 15 5 0 10 -26 11 -57z
m-404 5 c-3 -4 1 -8 8 -8 9 0 10 -3 2 -8 -6 -4 -10 -15 -8 -24 1 -13 -4 -18
-19 -18 -18 0 -19 2 -7 10 13 9 13 10 0 10 -13 0 -13 1 0 10 13 9 13 10 0 10
-13 0 -13 1 0 10 11 7 11 10 2 10 -10 0 -10 3 0 14 13 14 32 0 22 -16z m-53
-15 c-11 -5 -11 -7 0 -14 12 -7 11 -9 -1 -9 -13 0 -13 -1 0 -10 11 -7 8 -10
-15 -9 -16 0 -24 3 -17 6 6 2 12 9 12 14 0 6 -6 7 -12 3 -9 -5 -9 -2 1 9 7 9
21 17 30 16 12 0 12 -2 2 -6z m52 -60 c-7 -2 -19 -2 -25 0 -7 3 -2 5 12 5 14
0 19 -2 13 -5z m-233 -25 c0 -4 -4 -8 -9 -8 -6 0 -12 4 -15 8 -3 5 1 9 9 9 8
0 15 -4 15 -9z m86 -34 c0 -29 -5 -44 -13 -44 -7 0 -13 8 -14 18 0 14 -2 14
-9 -3 -7 -15 -9 -9 -9 26 -1 42 1 47 22 47 20 0 23 -5 23 -44z m154 31 c-10
-12 -10 -18 1 -32 12 -14 12 -15 0 -9 -10 7 -12 3 -6 -13 5 -17 2 -21 -14 -21
-23 0 -28 15 -8 23 9 4 9 8 -2 15 -11 8 -11 11 0 16 11 5 11 7 2 12 -22 10
-14 24 13 24 22 0 25 -2 14 -15z m221 -29 c3 -31 0 -40 -14 -42 -9 -1 -17 2
-17 7 0 5 5 9 10 9 6 0 10 17 10 37 0 47 7 40 11 -11z m-537 7 c-1 -16 -3 -34
-3 -40 -1 -7 -5 -13 -11 -13 -9 0 -6 52 5 70 9 15 11 13 9 -17z m67 -33 c22 0
38 -4 35 -8 -6 -10 -92 -8 -88 1 1 4 3 22 4 40 l1 32 4 -32 c4 -31 7 -33 44
-33z m-209 15 c-2 -19 -9 -35 -14 -35 -6 0 -8 7 -4 15 3 8 1 15 -4 15 -6 0
-10 -7 -10 -15 0 -21 -20 -19 -21 3 -1 16 -2 16 -6 0 -5 -22 -23 -24 -23 -3 0
7 -8 19 -17 25 -15 9 -15 11 -2 7 9 -3 22 0 28 6 8 8 11 7 11 -3 0 -13 2 -13
10 0 8 12 12 12 18 2 7 -10 11 -10 22 3 17 20 17 20 12 -20z m98 2 c0 -4 -16
-7 -35 -5 -19 1 -35 5 -35 9 0 5 16 7 35 6 19 -1 35 -6 35 -10z m-225 -7 c-3
-6 3 -10 14 -10 12 0 21 -4 21 -9 0 -5 -11 -8 -25 -8 -15 0 -25 5 -25 13 0 8
-4 14 -10 14 -5 0 -7 -7 -4 -15 5 -11 -1 -15 -25 -15 -17 0 -31 5 -31 10 0 6
7 10 16 10 8 0 13 4 10 8 -2 4 11 9 30 10 23 2 33 -1 29 -8z m-100 -28 c-3 -3
-11 0 -18 7 -9 10 -8 11 6 5 10 -3 15 -9 12 -12z m330 8 c-8 -12 -95 -10 -95
2 0 4 23 8 51 8 32 0 48 -4 44 -10z m-395 -15 c0 -2 -10 -9 -22 -15 -22 -11
-22 -10 -4 4 21 17 26 19 26 11z m138 -37 c-1 -29 -5 -33 -30 -35 -15 -1 -28
2 -28 8 0 6 4 8 8 5 4 -2 14 -1 22 5 12 7 10 9 -7 9 -16 0 -23 6 -23 20 0 16
7 20 30 20 27 0 29 -3 28 -32z m212 12 c0 -25 -30 -27 -31 -2 0 14 -2 14 -9
-3 -8 -19 -9 -19 -9 3 -1 17 5 22 24 22 18 0 25 -5 25 -20z m42 -2 c-6 -22 -6
-22 -10 -3 l-5 20 -8 -20 c-7 -19 -8 -19 -8 3 -1 15 5 22 18 22 15 0 18 -5 13
-22z m165 -10 c-3 -7 -5 -2 -5 12 0 14 2 19 5 13 2 -7 2 -19 0 -25z m143 12
c0 -11 -7 -20 -16 -20 -8 0 -12 -5 -9 -10 4 -6 11 -8 16 -5 5 4 9 1 9 -4 0 -6
-10 -10 -22 -9 -18 2 -24 9 -25 35 -3 29 0 33 22 33 18 0 25 -5 25 -20z m50 0
c0 -13 -7 -20 -20 -20 -13 0 -20 7 -20 20 0 13 7 20 20 20 13 0 20 -7 20 -20z
m-400 -42 c0 -4 -7 -8 -15 -8 -8 0 -15 4 -15 8 0 5 7 9 15 9 8 0 15 -4 15 -9z
m395 2 c3 -6 -4 -10 -17 -10 -18 0 -20 2 -8 10 19 12 18 12 25 0z m-2 -36 c-3
-9 -9 -12 -12 -7 -3 4 -10 11 -15 16 -5 4 0 7 12 7 15 0 20 -4 15 -16z m-393
-62 c0 -5 -7 -9 -15 -9 -8 0 -15 4 -15 9 0 4 7 8 15 8 8 0 15 -4 15 -8z m-275
-72 c3 -6 -1 -7 -9 -4 -18 7 -21 14 -7 14 6 0 13 -4 16 -10z"/>
<path d="M960 981 c-6 -12 -7 -21 -1 -21 10 0 24 30 17 37 -2 3 -9 -5 -16 -16z"/>
<path d="M995 940 c-19 -8 -19 -9 3 -9 12 -1 22 4 22 9 0 6 -1 10 -2 9 -2 0
-12 -4 -23 -9z"/>
<path d="M917 923 c-4 -6 -5 -18 -1 -26 7 -19 54 -19 54 -1 0 8 -9 14 -19 14
-11 0 -21 5 -23 12 -3 9 -6 9 -11 1z"/>
<path d="M980 845 c0 -8 5 -15 10 -15 6 0 10 7 10 15 0 8 -4 15 -10 15 -5 0
-10 -7 -10 -15z"/>
<path d="M978 706 c-7 -35 5 -51 28 -37 11 6 13 11 7 11 -7 0 -13 11 -13 25 0
32 -16 33 -22 1z"/>
<path d="M938 673 c6 -2 18 -2 25 0 6 3 1 5 -13 5 -14 0 -19 -2 -12 -5z"/>
<path d="M925 640 c-3 -5 -1 -10 4 -10 6 0 11 5 11 10 0 6 -2 10 -4 10 -3 0
-8 -4 -11 -10z"/>
<path d="M950 640 c0 -5 5 -10 10 -10 6 0 10 5 10 10 0 6 -4 10 -10 10 -5 0
-10 -4 -10 -10z"/>
<path d="M980 635 c0 -8 5 -15 10 -15 6 0 10 7 10 15 0 8 -4 15 -10 15 -5 0
-10 -7 -10 -15z"/>
<path d="M925 610 c-3 -5 -1 -10 4 -10 6 0 11 5 11 10 0 6 -2 10 -4 10 -3 0
-8 -4 -11 -10z"/>
<path d="M950 610 c0 -5 5 -10 10 -10 6 0 10 5 10 10 0 6 -4 10 -10 10 -5 0
-10 -4 -10 -10z"/>
<path d="M1308 863 c7 -3 16 -2 19 1 4 3 -2 6 -13 5 -11 0 -14 -3 -6 -6z"/>
<path d="M670 642 c0 -12 4 -22 9 -22 10 0 9 26 -2 36 -4 4 -7 -2 -7 -14z"/>
<path d="M220 550 c0 -5 5 -10 10 -10 6 0 10 5 10 10 0 6 -4 10 -10 10 -5 0
-10 -4 -10 -10z"/>
<path d="M2118 1713 c7 -3 16 -2 19 1 4 3 -2 6 -13 5 -11 0 -14 -3 -6 -6z"/>
<path d="M2071 1684 c0 -11 3 -14 6 -6 3 7 2 16 -1 19 -3 4 -6 -2 -5 -13z"/>
<path d="M2111 1684 c0 -11 3 -14 6 -6 3 7 2 16 -1 19 -3 4 -6 -2 -5 -13z"/>
<path d="M2311 1684 c0 -11 3 -14 6 -6 3 7 2 16 -1 19 -3 4 -6 -2 -5 -13z"/>
<path d="M1794 1638 c-3 -5 13 -8 35 -8 30 0 41 -4 41 -15 0 -8 4 -15 10 -15
5 0 7 8 4 18 -5 16 -5 16 6 0 13 -22 32 -24 24 -3 -4 8 -1 15 5 15 6 0 11 4
11 10 0 11 -129 9 -136 -2z"/>
<path d="M1940 1639 c0 -5 9 -9 19 -9 11 0 22 -8 24 -17 4 -15 5 -15 6 2 1 17
3 18 11 5 6 -10 10 -11 10 -2 0 19 20 14 21 -5 0 -15 2 -15 9 2 l9 20 1 -20
c1 -19 2 -19 9 -2 4 10 10 18 14 18 21 -2 30 0 23 6 -10 10 -156 12 -156 2z"/>
<path d="M2110 1635 c0 -7 11 -10 30 -7 17 2 30 5 30 7 0 2 -13 5 -30 7 -19 3
-30 0 -30 -7z"/>
<path d="M2200 1640 c-22 -7 -21 -8 12 -9 26 -1 38 -6 41 -18 3 -11 5 -7 6 10
1 29 -11 32 -59 17z"/>
<path d="M2280 1640 c0 -9 13 -12 37 -9 4 0 10 -8 14 -18 7 -17 8 -17 8 0 1 9
9 17 18 17 31 0 6 11 -36 15 -22 2 -41 0 -41 -5z"/>
<path d="M2385 1640 c-3 -5 -1 -10 4 -10 6 0 11 5 11 10 0 6 -2 10 -4 10 -3 0
-8 -4 -11 -10z"/>
<path d="M1798 1583 c6 -2 18 -2 25 0 6 3 1 5 -13 5 -14 0 -19 -2 -12 -5z"/>
<path d="M1940 1580 c0 -5 5 -10 11 -10 5 0 7 5 4 10 -3 6 -8 10 -11 10 -2 0
-4 -4 -4 -10z"/>
<path d="M2110 1580 c0 -5 7 -7 15 -4 8 4 15 8 15 10 0 2 -7 4 -15 4 -8 0 -15
-4 -15 -10z"/>
<path d="M2310 1579 c0 -5 5 -7 10 -4 6 3 10 -1 10 -9 0 -9 -4 -16 -10 -16 -5
0 -10 -7 -10 -15 0 -8 -8 -15 -17 -15 -25 0 -24 -64 0 -68 10 -2 17 -9 18 -15
0 -7 4 -3 9 8 7 16 9 11 9 -20 0 -31 -2 -36 -9 -20 -5 11 -9 15 -9 8 -1 -7 -7
-10 -15 -7 -11 4 -14 -2 -14 -25 1 -19 6 -31 15 -31 7 0 13 -5 13 -11 0 -6 -7
-9 -15 -5 -9 3 -15 0 -15 -9 0 -25 38 -18 43 8 3 15 5 12 6 -11 0 -18 -3 -31
-8 -28 -5 3 -11 -1 -14 -9 -7 -16 26 -30 44 -19 7 4 9 3 6 -3 -4 -6 4 -10 20
-10 l27 0 -27 14 c-15 8 -32 11 -37 8 -7 -4 -7 3 0 19 5 14 7 32 4 40 -3 8 2
16 13 19 16 4 16 5 1 6 -10 0 -18 8 -18 16 0 9 6 12 18 8 15 -5 15 -4 -1 9
-12 9 -18 23 -15 39 2 19 8 24 31 22 25 -2 27 1 27 33 0 19 -4 34 -9 34 -4 0
-6 -11 -3 -25 4 -22 1 -25 -22 -25 -19 0 -26 5 -26 19 0 11 6 22 13 24 10 4
10 6 0 6 -8 1 -13 15 -13 36 0 24 -5 35 -15 35 -8 0 -15 -5 -15 -11z m0 -91
c0 -18 -2 -20 -9 -8 -6 8 -7 18 -5 22 9 14 14 9 14 -14z m0 -113 c0 -8 -4 -15
-10 -15 -5 0 -7 7 -4 15 4 8 8 15 10 15 2 0 4 -7 4 -15z"/>
<path d="M1790 1540 c0 -5 9 -10 20 -10 11 0 20 5 20 10 0 6 -9 10 -20 10 -11
0 -20 -4 -20 -10z"/>
<path d="M2280 1539 c0 -5 5 -7 10 -4 6 3 10 8 10 11 0 2 -4 4 -10 4 -5 0 -10
-5 -10 -11z"/>
<path d="M2170 1516 c0 -2 7 -7 16 -10 8 -3 12 -2 9 4 -6 10 -25 14 -25 6z"/>
<path d="M1797 1397 c-5 -12 -1 -17 13 -17 12 0 20 7 20 18 0 13 -2 14 -9 3
-7 -11 -9 -11 -13 0 -3 9 -6 8 -11 -4z"/>
<path d="M2385 1401 c-3 -5 -1 -12 5 -16 5 -3 10 1 10 9 0 18 -6 21 -15 7z"/>
<path d="M1794 1358 c-3 -4 4 -8 15 -8 12 0 21 4 21 8 0 5 -7 9 -15 9 -9 0
-18 -4 -21 -9z"/>
<path d="M2385 1360 c-3 -5 -1 -10 4 -10 6 0 11 5 11 10 0 6 -2 10 -4 10 -3 0
-8 -4 -11 -10z"/>
<path d="M1883 1330 c-104 -22 -188 -81 -228 -160 -13 -26 -36 -94 -50 -151
-32 -127 -52 -174 -95 -223 -40 -45 -143 -117 -162 -113 -7 2 -9 2 -4 -1 15
-8 -123 -82 -142 -76 -12 4 -13 3 -4 -3 9 -7 -29 -29 -125 -75 -215 -104 -319
-130 -561 -143 -182 -10 -326 -58 -445 -149 -26 -20 -49 -36 -51 -36 -7 0 0
29 9 37 4 4 5 2 0 -6 -5 -9 -3 -12 6 -9 8 3 13 10 12 16 -1 5 5 16 14 24 14
11 16 11 9 -1 -6 -9 -4 -12 5 -9 8 3 14 10 14 16 0 5 4 14 9 19 5 5 6 3 2 -5
-8 -14 10 -17 19 -2 3 6 -1 13 -9 16 -9 3 -16 12 -16 20 0 8 -5 14 -11 14 -6
0 -9 -7 -6 -15 4 -8 1 -17 -4 -21 -7 -4 -10 6 -9 27 1 19 2 55 1 82 -1 46 -2
47 -31 45 l-30 -2 0 -83 c0 -49 4 -83 10 -83 6 0 10 -7 10 -16 0 -8 -4 -13 -9
-10 -4 3 -9 -53 -10 -124 l-2 -130 1201 0 1200 0 0 606 c0 566 -1 608 -17 620
-17 13 -17 14 2 8 16 -5 17 -4 5 4 -8 6 -17 9 -22 6 -4 -3 -24 2 -45 11 -70
29 -257 75 -328 79 -38 3 -89 1 -112 -4z m-1836 -1027 c-3 -10 -5 -4 -5 12 0
17 2 24 5 18 2 -7 2 -21 0 -30z m3 -27 c0 -3 -4 -8 -10 -11 -5 -3 -10 -1 -10
4 0 6 5 11 10 11 6 0 10 -2 10 -4z"/>
<path d="M2386 1331 c-4 -7 -5 -15 -2 -18 9 -9 19 4 14 18 -4 11 -6 11 -12 0z"/>
<path d="M1733 1303 c8 -13 -29 -47 -42 -39 -5 3 -16 -1 -24 -9 -9 -8 -20 -15
-26 -15 -6 0 -11 -11 -11 -25 0 -34 12 -29 72 30 54 54 56 57 37 64 -6 2 -9
-1 -6 -6z m-53 -62 c-5 -11 -15 -23 -21 -27 -6 -3 -3 5 6 20 20 30 30 35 15 7z"/>
<path d="M1585 1290 c-3 -5 -1 -10 4 -10 6 0 11 5 11 10 0 6 -2 10 -4 10 -3 0
-8 -4 -11 -10z"/>
<path d="M2275 1290 c-3 -5 1 -10 9 -10 9 0 16 5 16 10 0 6 -4 10 -9 10 -6 0
-13 -4 -16 -10z"/>
<path d="M1630 1260 c0 -5 5 -10 10 -10 6 0 10 5 10 10 0 6 -4 10 -10 10 -5 0
-10 -4 -10 -10z"/>
<path d="M1586 1225 c-3 -8 -1 -15 4 -15 6 0 10 7 10 15 0 8 -2 15 -4 15 -2 0
-6 -7 -10 -15z"/>
<path d="M1576 1192 c-3 -5 1 -9 9 -9 8 0 15 4 15 9 0 4 -4 8 -9 8 -6 0 -12
-4 -15 -8z"/>
<path d="M1183 930 c0 -30 2 -43 4 -27 2 15 2 39 0 55 -2 15 -4 2 -4 -28z"/>
<path d="M1183 835 c0 -22 2 -30 4 -17 2 12 2 30 0 40 -3 9 -5 -1 -4 -23z"/>
<path d="M1515 829 c-28 -42 -121 -112 -137 -103 -10 5 -10 4 -1 -6 9 -10 22
-5 63 25 49 36 107 101 99 110 -3 2 -13 -10 -24 -26z"/>
<path d="M1162 640 c0 -14 2 -19 5 -12 2 6 2 18 0 25 -3 6 -5 1 -5 -13z"/>
<path d="M1230 652 c0 -12 19 -26 26 -19 2 2 -2 10 -11 17 -9 8 -15 8 -15 2z"/>
<path d="M142 510 c-1 -35 3 -50 12 -50 13 0 14 17 7 88 0 6 -5 12 -10 12 -5
0 -9 -22 -9 -50z"/>
<path d="M367 540 c-3 -12 0 -20 8 -20 8 0 11 8 8 20 -3 11 -7 20 -8 20 -1 0
-5 -9 -8 -20z"/>
<path d="M980 550 c0 -5 5 -10 10 -10 6 0 10 5 10 10 0 6 -4 10 -10 10 -5 0
-10 -4 -10 -10z"/>
<path d="M1065 550 c3 -5 11 -10 16 -10 6 0 7 5 4 10 -3 6 -11 10 -16 10 -6 0
-7 -4 -4 -10z"/>
<path d="M925 520 c3 -5 8 -10 11 -10 2 0 4 5 4 10 0 6 -5 10 -11 10 -5 0 -7
-4 -4 -10z"/>
<path d="M950 516 c0 -8 5 -18 11 -21 14 -9 70 15 63 26 -9 16 -42 10 -47 -8
-4 -17 -5 -17 -6 0 -1 20 -21 23 -21 3z"/>
<path d="M77 502 c-3 -4 -1 -16 4 -27 6 -16 8 -16 8 -3 1 9 6 18 13 20 8 3 6
7 -5 11 -9 3 -18 3 -20 -1z"/>
<path d="M367 503 c-2 -5 -1 -17 3 -27 6 -19 7 -19 12 2 6 21 -6 40 -15 25z"/>
<path d="M220 470 c0 -5 5 -10 11 -10 5 0 7 5 4 10 -3 6 -8 10 -11 10 -2 0 -4
-4 -4 -10z"/>
<path d="M74 439 c-3 -6 -1 -16 5 -22 8 -8 11 -5 11 11 0 24 -5 28 -16 11z"/>
<path d="M370 430 c0 -19 3 -21 12 -12 9 9 9 15 0 24 -9 9 -12 7 -12 -12z"/>
<path d="M117 314 c-8 -8 1 -24 12 -24 4 0 8 7 8 15 0 16 -9 20 -20 9z"/>
</g>
</svg>
