<svg width="4066" height="3032" viewBox="0 0 4066 3032" fill="none" xmlns="http://www.w3.org/2000/svg">
<rect x="0" y="0" width="4062" height="3031" fill="#3C3C3B"/>
<path d="M1 2683.5L37.5 2665.5L84.5 2649L152 2630.5L215 2614.5L295 2604H360H450H517.5L611 2614.5L721.5 2630.5L819.5 2649L894.5 2661.5L976.5 2677.5L1080.5 2700.5L1186 2722.5L1258 2734H1322H1375L1440 2708L1479 2685L1540 2640L1579 2599.5L1615 2560.5L1658.5 2517.5L1711.5 2471L1765 2423.5L1801 2393L1870.5 2345.5L1921 2311L1980.5 2283.5L2049.5 2241.5L2117.5 2209.5L2201.5 2182.5L2263.5 2162L2317 2146L2374.5 2131.5L2461 2118.5L2536.5 2104.5L2620 2090L2709.5 2074L2790.5 2056.5L2868.5 2038L2933.5 2013.5L3024.5 1977L3075 1948.5L3098 1929.5L3129 1900.5L3161 1862L3192.5 1830L3222.5 1794L3267 1745L3299 1700.5L3322.5 1656L3337.5 1620L3365 1558L3382.5 1511L3406 1472.5L3427.5 1428.5L3456.5 1386.5L3479 1363L3504.5 1333L3530.5 1306.5L3560 1284.5L3588 1271.5L3620.5 1256L3653.5 1243.5L3688.5 1235.5L3742 1229H3784L3831.5 1235.5L3871.5 1243.5L3917.5 1256L3966 1271.5L3993.5 1284.5L4019.5 1295L4040 1306.5L4053.5 1315.5L4064.5 1325" stroke="#F7F7F7"/>
<path d="M0.333333 2524.5C0.333333 2525.97 1.52724 2527.17 3 2527.17C4.47276 2527.17 5.66667 2525.97 5.66667 2524.5C5.66667 2523.03 4.47276 2521.83 3 2521.83C1.52724 2521.83 0.333333 2523.03 0.333333 2524.5ZM53 2504L52.8674 2503.52L52.8383 2503.53L52.8103 2503.54L53 2504ZM113 2487.5L112.869 2487.02L112.867 2487.02L113 2487.5ZM179.5 2469.5L179.391 2469.01L179.38 2469.01L179.369 2469.02L179.5 2469.5ZM231 2458L230.933 2457.5L230.912 2457.51L230.891 2457.51L231 2458ZM290 2450V2449.5H289.966L289.933 2449.5L290 2450ZM530.5 2450L530.563 2449.5L530.532 2449.5H530.5V2450ZM593 2458L592.937 2458.5L592.938 2458.5L593 2458ZM685 2469.5L685.095 2469.01L685.078 2469.01L685.062 2469L685 2469.5ZM778.5 2487.5L778.405 2487.99L778.424 2487.99L778.443 2488L778.5 2487.5ZM865.5 2497.5L865.619 2497.01L865.589 2497.01L865.557 2497L865.5 2497.5ZM975.5 2524.5L975.62 2524.01L975.619 2524.01L975.5 2524.5ZM1048.5 2542.5L1048.38 2542.99L1048.4 2542.99L1048.42 2542.99L1048.5 2542.5ZM1131.5 2556.5L1131.61 2556.01L1131.6 2556.01L1131.58 2556.01L1131.5 2556.5ZM1174 2566.5L1173.89 2566.99L1173.89 2566.99L1174 2566.5ZM1245.5 2582L1245.39 2582.49L1245.45 2582.5H1245.5V2582ZM1357 2582V2582.5H1357.05L1357.09 2582.49L1357 2582ZM1396.5 2574.5L1396.59 2574.99L1396.65 2574.98L1396.71 2574.95L1396.5 2574.5ZM1436 2556.5L1436.21 2556.95L1436.22 2556.95L1436.23 2556.94L1436 2556.5ZM1478.5 2534.5L1478.73 2534.94L1478.78 2534.92L1478.82 2534.89L1478.5 2534.5ZM1513 2506.5L1513.32 2506.89L1513.33 2506.87L1513.35 2506.86L1513 2506.5ZM1563 2458L1562.67 2457.63L1562.66 2457.63L1562.65 2457.64L1563 2458ZM1598.5 2426L1598.83 2426.37L1598.85 2426.36L1598.86 2426.35L1598.5 2426ZM1629.5 2394L1629.86 2394.35L1629.86 2394.35L1629.5 2394ZM1666.5 2355.5L1666.17 2355.12L1666.15 2355.14L1666.14 2355.15L1666.5 2355.5ZM1706 2321L1706.33 2321.38L1706.33 2321.38L1706 2321ZM1747 2285L1746.69 2284.6L1746.68 2284.61L1746.67 2284.62L1747 2285ZM1796 2247L1795.7 2246.6L1795.69 2246.6L1796 2247ZM1847 2209.5L1846.73 2209.08L1846.72 2209.09L1846.7 2209.1L1847 2209.5ZM1900.5 2175L1900.77 2175.42L1900.78 2175.41L1900.79 2175.41L1900.5 2175ZM1944 2144.5L1943.75 2144.07L1943.73 2144.08L1943.71 2144.09L1944 2144.5ZM1991.5 2117.5L1991.29 2117.05L1991.27 2117.05L1991.25 2117.07L1991.5 2117.5ZM2055.5 2088L2055.29 2087.54L2055.29 2087.55L2055.5 2088ZM2100.5 2067.5L2100.31 2067.04L2100.29 2067.04L2100.5 2067.5ZM2149 2047L2148.84 2046.53L2148.82 2046.53L2148.81 2046.54L2149 2047ZM2211.5 2025.5L2211.35 2025.02L2211.34 2025.03L2211.5 2025.5ZM2260 2010L2259.86 2009.52L2259.85 2009.52L2259.85 2009.52L2260 2010ZM2303.5 1997.5L2303.38 1997.01L2303.37 1997.02L2303.36 1997.02L2303.5 1997.5ZM2364 1983L2363.89 1982.51L2363.88 1982.51L2364 1983ZM2417.5 1971.5L2417.41 1971.01L2417.4 1971.01L2417.4 1971.01L2417.5 1971.5ZM2486.5 1959L2486.41 1958.51L2486.41 1958.51L2486.5 1959ZM2531.5 1951L2531.42 1950.51L2531.41 1950.51L2531.5 1951ZM2604.5 1938.5L2604.42 1938.01L2604.42 1938.01L2604.5 1938.5ZM2657 1930.5L2657.08 1930.99L2657.09 1930.99L2657.1 1930.99L2657 1930.5ZM2723.5 1916.5L2723.42 1916.01L2723.41 1916.01L2723.4 1916.01L2723.5 1916.5ZM2772 1909L2772.08 1909.49L2772.12 1909.49L2772.16 1909.47L2772 1909ZM2817 1893.5V1893H2816.92L2816.84 1893.03L2817 1893.5ZM2841 1893.5V1894H2841.08L2841.15 1893.98L2841 1893.5ZM2928 1865.5L2928.15 1865.98L2928.17 1865.97L2928.19 1865.96L2928 1865.5ZM2978 1845L2978.19 1845.46L2978.2 1845.46L2978.21 1845.45L2978 1845ZM3048.5 1812L3048.71 1812.45L3048.76 1812.43L3048.8 1812.4L3048.5 1812ZM3081.5 1787.5L3081.8 1787.9L3081.81 1787.89L3081.82 1787.88L3081.5 1787.5ZM3101 1771L3101.32 1771.38L3101.33 1771.37L3101 1771ZM3157.5 1721L3157.18 1720.61L3157.18 1720.62L3157.17 1720.63L3157.5 1721ZM3210.5 1677.5L3210.82 1677.89L3210.88 1677.84L3210.92 1677.77L3210.5 1677.5ZM3244.5 1624.5L3244.92 1624.77L3244.92 1624.76L3244.93 1624.76L3244.5 1624.5ZM3288 1552L3288.43 1552.26L3288.43 1552.25L3288.44 1552.24L3288 1552ZM3319 1494.5L3319.44 1494.74L3319.45 1494.72L3319.45 1494.71L3319 1494.5ZM3341 1446.5L3340.56 1446.26L3340.55 1446.27L3340.55 1446.29L3341 1446.5ZM3361 1410.5L3361.44 1410.74L3361.45 1410.72L3361.46 1410.69L3361 1410.5ZM3381.5 1360.5L3381.06 1360.26L3381.05 1360.28L3381.04 1360.31L3381.5 1360.5ZM3407.5 1313L3407.07 1312.75L3407.06 1312.76L3407.5 1313ZM3427 1279L3426.58 1278.73L3426.57 1278.74L3426.57 1278.75L3427 1279ZM3449 1245.5L3448.59 1245.21L3448.59 1245.22L3448.58 1245.23L3449 1245.5ZM3468 1218.5L3467.62 1218.17L3467.61 1218.19L3467.59 1218.21L3468 1218.5ZM3507.5 1173L3507.17 1172.63L3507.14 1172.65L3507.12 1172.67L3507.5 1173ZM3533 1150L3532.72 1149.59L3532.69 1149.61L3532.67 1149.63L3533 1150ZM3561 1131L3560.75 1130.57L3560.74 1130.58L3560.72 1130.59L3561 1131ZM3593.5 1112.5L3593.3 1112.04L3593.27 1112.05L3593.25 1112.07L3593.5 1112.5ZM3621.5 1100L3621.33 1099.53L3621.31 1099.54L3621.3 1099.54L3621.5 1100ZM3655 1088L3654.89 1087.51L3654.86 1087.52L3654.83 1087.53L3655 1088ZM3685.5 1081L3685.41 1080.51L3685.4 1080.51L3685.39 1080.51L3685.5 1081ZM3726 1074V1073.5H3725.96L3725.91 1073.51L3726 1074ZM3790 1074L3790.06 1073.5L3790.03 1073.5H3790V1074ZM3844 1081L3844.09 1080.51L3844.08 1080.51L3844.06 1080.5L3844 1081ZM3881 1088L3881.15 1087.52L3881.12 1087.51L3881.09 1087.51L3881 1088ZM3919.5 1100L3919.67 1099.53L3919.66 1099.53L3919.65 1099.52L3919.5 1100ZM3953 1112.5L3953.2 1112.04L3953.19 1112.04L3953.17 1112.03L3953 1112.5ZM3976.5 1123L3976.3 1123.46L3976.31 1123.46L3976.33 1123.47L3976.5 1123ZM3998.5 1131L3998.74 1130.56L3998.71 1130.54L3998.67 1130.53L3998.5 1131ZM4032.5 1150L4032.75 1149.56L4032.74 1149.56L4032.5 1150ZM4048.5 1159L4048.25 1159.44L4048.29 1159.46L4048.33 1159.47L4048.5 1159ZM3.18968 2524.96L53.1897 2504.46L52.8103 2503.54L2.81032 2524.04L3.18968 2524.96ZM53.1326 2504.48L113.133 2487.98L112.867 2487.02L52.8674 2503.52L53.1326 2504.48ZM113.131 2487.98L179.631 2469.98L179.369 2469.02L112.869 2487.02L113.131 2487.98ZM179.609 2469.99L231.109 2458.49L230.891 2457.51L179.391 2469.01L179.609 2469.99ZM231.067 2458.5L290.067 2450.5L289.933 2449.5L230.933 2457.5L231.067 2458.5ZM290 2450.5H330.5V2449.5H290V2450.5ZM330.5 2450.5H388.5V2449.5H330.5V2450.5ZM388.5 2450.5H469V2449.5H388.5V2450.5ZM469 2450.5H530.5V2449.5H469V2450.5ZM530.437 2450.5L592.937 2458.5L593.063 2457.5L530.563 2449.5L530.437 2450.5ZM592.938 2458.5L684.938 2470L685.062 2469L593.062 2457.5L592.938 2458.5ZM684.905 2469.99L778.405 2487.99L778.595 2487.01L685.095 2469.01L684.905 2469.99ZM778.443 2488L865.443 2498L865.557 2497L778.557 2487L778.443 2488ZM865.381 2497.99L975.381 2524.99L975.619 2524.01L865.619 2497.01L865.381 2497.99ZM975.38 2524.99L1048.38 2542.99L1048.62 2542.01L975.62 2524.01L975.38 2524.99ZM1048.42 2542.99L1131.42 2556.99L1131.58 2556.01L1048.58 2542.01L1048.42 2542.99ZM1131.39 2556.99L1173.89 2566.99L1174.11 2566.01L1131.61 2556.01L1131.39 2556.99ZM1173.89 2566.99L1245.39 2582.49L1245.61 2581.51L1174.11 2566.01L1173.89 2566.99ZM1245.5 2582.5H1295.5V2581.5H1245.5V2582.5ZM1295.5 2582.5H1357V2581.5H1295.5V2582.5ZM1357.09 2582.49L1396.59 2574.99L1396.41 2574.01L1356.91 2581.51L1357.09 2582.49ZM1396.71 2574.95L1436.21 2556.95L1435.79 2556.05L1396.29 2574.05L1396.71 2574.95ZM1436.23 2556.94L1478.73 2534.94L1478.27 2534.06L1435.77 2556.06L1436.23 2556.94ZM1478.82 2534.89L1513.32 2506.89L1512.68 2506.11L1478.18 2534.11L1478.82 2534.89ZM1513.35 2506.86L1563.35 2458.36L1562.65 2457.64L1512.65 2506.14L1513.35 2506.86ZM1563.33 2458.37L1598.83 2426.37L1598.17 2425.63L1562.67 2457.63L1563.33 2458.37ZM1598.86 2426.35L1629.86 2394.35L1629.14 2393.65L1598.14 2425.65L1598.86 2426.35ZM1629.86 2394.35L1666.86 2355.85L1666.14 2355.15L1629.14 2393.65L1629.86 2394.35ZM1666.83 2355.88L1706.33 2321.38L1705.67 2320.62L1666.17 2355.12L1666.83 2355.88ZM1706.33 2321.38L1747.33 2285.38L1746.67 2284.62L1705.67 2320.62L1706.33 2321.38ZM1747.31 2285.4L1796.31 2247.4L1795.69 2246.6L1746.69 2284.6L1747.31 2285.4ZM1796.3 2247.4L1847.3 2209.9L1846.7 2209.1L1795.7 2246.6L1796.3 2247.4ZM1847.27 2209.92L1900.77 2175.42L1900.23 2174.58L1846.73 2209.08L1847.27 2209.92ZM1900.79 2175.41L1944.29 2144.91L1943.71 2144.09L1900.21 2174.59L1900.79 2175.41ZM1944.25 2144.93L1991.75 2117.93L1991.25 2117.07L1943.75 2144.07L1944.25 2144.93ZM1991.71 2117.95L2055.71 2088.45L2055.29 2087.55L1991.29 2117.05L1991.71 2117.95ZM2055.71 2088.46L2100.71 2067.96L2100.29 2067.04L2055.29 2087.54L2055.71 2088.46ZM2100.69 2067.96L2149.19 2047.46L2148.81 2046.54L2100.31 2067.04L2100.69 2067.96ZM2149.16 2047.47L2211.66 2025.97L2211.34 2025.03L2148.84 2046.53L2149.16 2047.47ZM2211.65 2025.98L2260.15 2010.48L2259.85 2009.52L2211.35 2025.02L2211.65 2025.98ZM2260.14 2010.48L2303.64 1997.98L2303.36 1997.02L2259.86 2009.52L2260.14 2010.48ZM2303.62 1997.99L2364.12 1983.49L2363.88 1982.51L2303.38 1997.01L2303.62 1997.99ZM2364.1 1983.49L2417.6 1971.99L2417.4 1971.01L2363.9 1982.51L2364.1 1983.49ZM2417.59 1971.99L2486.59 1959.49L2486.41 1958.51L2417.41 1971.01L2417.59 1971.99ZM2486.59 1959.49L2531.59 1951.49L2531.41 1950.51L2486.41 1958.51L2486.59 1959.49ZM2531.58 1951.49L2604.58 1938.99L2604.42 1938.01L2531.42 1950.51L2531.58 1951.49ZM2604.58 1938.99L2657.08 1930.99L2656.92 1930.01L2604.42 1938.01L2604.58 1938.99ZM2657.1 1930.99L2723.6 1916.99L2723.4 1916.01L2656.9 1930.01L2657.1 1930.99ZM2723.58 1916.99L2772.08 1909.49L2771.92 1908.51L2723.42 1916.01L2723.58 1916.99ZM2772.16 1909.47L2817.16 1893.97L2816.84 1893.03L2771.84 1908.53L2772.16 1909.47ZM2817 1894H2841V1893H2817V1894ZM2841.15 1893.98L2928.15 1865.98L2927.85 1865.02L2840.85 1893.02L2841.15 1893.98ZM2928.19 1865.96L2978.19 1845.46L2977.81 1844.54L2927.81 1865.04L2928.19 1865.96ZM2978.21 1845.45L3048.71 1812.45L3048.29 1811.55L2977.79 1844.55L2978.21 1845.45ZM3048.8 1812.4L3081.8 1787.9L3081.2 1787.1L3048.2 1811.6L3048.8 1812.4ZM3081.82 1787.88L3101.32 1771.38L3100.68 1770.62L3081.18 1787.12L3081.82 1787.88ZM3101.33 1771.37L3157.83 1721.37L3157.17 1720.63L3100.67 1770.63L3101.33 1771.37ZM3157.82 1721.39L3210.82 1677.89L3210.18 1677.11L3157.18 1720.61L3157.82 1721.39ZM3210.92 1677.77L3244.92 1624.77L3244.08 1624.23L3210.08 1677.23L3210.92 1677.77ZM3244.93 1624.76L3288.43 1552.26L3287.57 1551.74L3244.07 1624.24L3244.93 1624.76ZM3288.44 1552.24L3319.44 1494.74L3318.56 1494.26L3287.56 1551.76L3288.44 1552.24ZM3319.45 1494.71L3341.45 1446.71L3340.55 1446.29L3318.55 1494.29L3319.45 1494.71ZM3341.44 1446.74L3361.44 1410.74L3360.56 1410.26L3340.56 1446.26L3341.44 1446.74ZM3361.46 1410.69L3381.96 1360.69L3381.04 1360.31L3360.54 1410.31L3361.46 1410.69ZM3381.94 1360.74L3407.94 1313.24L3407.06 1312.76L3381.06 1360.26L3381.94 1360.74ZM3407.93 1313.25L3427.43 1279.25L3426.57 1278.75L3407.07 1312.75L3407.93 1313.25ZM3427.42 1279.27L3449.42 1245.77L3448.58 1245.23L3426.58 1278.73L3427.42 1279.27ZM3449.41 1245.79L3468.41 1218.79L3467.59 1218.21L3448.59 1245.21L3449.41 1245.79ZM3468.38 1218.83L3507.88 1173.33L3507.12 1172.67L3467.62 1218.17L3468.38 1218.83ZM3507.83 1173.37L3533.33 1150.37L3532.67 1149.63L3507.17 1172.63L3507.83 1173.37ZM3533.28 1150.41L3561.28 1131.41L3560.72 1130.59L3532.72 1149.59L3533.28 1150.41ZM3561.25 1131.43L3593.75 1112.93L3593.25 1112.07L3560.75 1130.57L3561.25 1131.43ZM3593.7 1112.96L3621.7 1100.46L3621.3 1099.54L3593.3 1112.04L3593.7 1112.96ZM3621.67 1100.47L3655.17 1088.47L3654.83 1087.53L3621.33 1099.53L3621.67 1100.47ZM3655.11 1088.49L3685.61 1081.49L3685.39 1080.51L3654.89 1087.51L3655.11 1088.49ZM3685.59 1081.49L3726.09 1074.49L3725.91 1073.51L3685.41 1080.51L3685.59 1081.49ZM3726 1074.5H3759V1073.5H3726V1074.5ZM3759 1074.5H3790V1073.5H3759V1074.5ZM3789.94 1074.5L3843.94 1081.5L3844.06 1080.5L3790.06 1073.5L3789.94 1074.5ZM3843.91 1081.49L3880.91 1088.49L3881.09 1087.51L3844.09 1080.51L3843.91 1081.49ZM3880.85 1088.48L3919.35 1100.48L3919.65 1099.52L3881.15 1087.52L3880.85 1088.48ZM3919.33 1100.47L3952.83 1112.97L3953.17 1112.03L3919.67 1099.53L3919.33 1100.47ZM3952.8 1112.96L3976.3 1123.46L3976.7 1122.54L3953.2 1112.04L3952.8 1112.96ZM3976.33 1123.47L3998.33 1131.47L3998.67 1130.53L3976.67 1122.53L3976.33 1123.47ZM3998.26 1131.44L4032.26 1150.44L4032.74 1149.56L3998.74 1130.56L3998.26 1131.44ZM4032.25 1150.44L4048.25 1159.44L4048.75 1158.56L4032.75 1149.56L4032.25 1150.44ZM4048.33 1159.47L4064.83 1165.47L4065.17 1164.53L4048.67 1158.53L4048.33 1159.47Z" fill="#F7F7F7"/>
<path d="M1.33333 2443.5C1.33333 2444.97 2.52724 2446.17 4 2446.17C5.47276 2446.17 6.66667 2444.97 6.66667 2443.5C6.66667 2442.03 5.47276 2440.83 4 2440.83C2.52724 2440.83 1.33333 2442.03 1.33333 2443.5ZM30.5 2425L30.2248 2424.58L30.2138 2424.59L30.5 2425ZM73 2397L72.7647 2396.56L72.7443 2396.57L72.7249 2396.58L73 2397ZM118 2373L118.235 2373.44L118.242 2373.44L118 2373ZM155 2352.5L154.782 2352.05L154.77 2352.06L154.758 2352.06L155 2352.5ZM201.5 2330L201.718 2330.45L201.729 2330.44L201.5 2330ZM252 2304L251.832 2303.53L251.801 2303.54L251.771 2303.56L252 2304ZM304 2285.5L304.168 2285.97L304.172 2285.97L304 2285.5ZM371 2261L370.833 2260.53L370.828 2260.53L371 2261ZM417.5 2244.5L417.405 2244.01L417.368 2244.02L417.333 2244.03L417.5 2244.5ZM485 2231.5L485.095 2231.99L485.11 2231.99L485.126 2231.98L485 2231.5ZM535 2218.5L534.928 2218.01L534.901 2218.01L534.874 2218.02L535 2218.5ZM600.5 2209L600.449 2208.5L600.439 2208.5L600.428 2208.51L600.5 2209ZM708.5 2198L708.472 2197.5L708.461 2197.5L708.449 2197.5L708.5 2198ZM806.5 2192.5V2192H806.486L806.472 2192L806.5 2192.5ZM909 2192.5V2193H909.029L909.058 2193L909 2192.5ZM956 2187L955.953 2186.5L955.942 2186.5L956 2187ZM1003.5 2182.5L1003.46 2182L1003.45 2182L1003.5 2182.5ZM1076 2176L1076.04 2176.5L1076.06 2176.5L1076.07 2176.49L1076 2176ZM1130.5 2168L1130.43 2167.5L1130.43 2167.51L1130.5 2168ZM1178.5 2161.5L1178.57 2162L1178.58 2161.99L1178.6 2161.99L1178.5 2161.5ZM1227 2152L1227.1 2152.49L1227.1 2152.49L1227 2152ZM1281 2141L1281.1 2141.49L1281.12 2141.48L1281.15 2141.48L1281 2141ZM1347 2120.5L1346.87 2120.02L1346.86 2120.02L1346.85 2120.02L1347 2120.5ZM1400 2106L1400.13 2106.48L1400.14 2106.48L1400 2106ZM1460 2089L1460.14 2089.48L1460.15 2089.48L1460.16 2089.47L1460 2089ZM1495.5 2077L1495.66 2077.47L1495.68 2077.47L1495.7 2077.46L1495.5 2077ZM1536 2059L1535.82 2058.53L1535.81 2058.54L1535.8 2058.54L1536 2059ZM1582.5 2041L1582.68 2041.47L1582.69 2041.46L1582.7 2041.46L1582.5 2041ZM1630.5 2019.5L1630.31 2019.04L1630.3 2019.04L1630.3 2019.04L1630.5 2019.5ZM1679 1999.5L1678.82 1999.04L1678.81 1999.04L1679 1999.5ZM1744.5 1973.5L1744.68 1973.96L1744.71 1973.96L1744.73 1973.94L1744.5 1973.5ZM1809.5 1939.5L1809.3 1939.04L1809.29 1939.05L1809.27 1939.06L1809.5 1939.5ZM1869 1914L1869.2 1914.46L1869.22 1914.45L1869.23 1914.44L1869 1914ZM1925 1884.5L1925.23 1884.94L1925.24 1884.94L1925 1884.5ZM1970.5 1859L1970.26 1858.56L1970.26 1858.56L1970.5 1859ZM2087.5 1796L2087.74 1796.44L2087.75 1796.43L2087.76 1796.43L2087.5 1796ZM2150 1758.5L2149.76 1758.06L2149.75 1758.07L2149.74 1758.07L2150 1758.5ZM2196.5 1733L2196.74 1733.44L2196.75 1733.43L2196.76 1733.43L2196.5 1733ZM2249 1700.5L2248.76 1700.06L2248.75 1700.07L2248.74 1700.07L2249 1700.5ZM2314.5 1664.5L2314.74 1664.94L2314.76 1664.93L2314.77 1664.92L2314.5 1664.5ZM2363.5 1632.5L2363.77 1632.92L2363.78 1632.92L2363.5 1632.5ZM2395 1611.5L2394.75 1611.07L2394.73 1611.08L2394.72 1611.08L2395 1611.5ZM2439 1585.5L2439.25 1585.93L2439.27 1585.92L2439.29 1585.91L2439 1585.5ZM2487.5 1551.5L2487.79 1551.91L2487.81 1551.9L2487.82 1551.88L2487.5 1551.5ZM2524.5 1520L2524.19 1519.61L2524.18 1519.61L2524.18 1519.62L2524.5 1520ZM2566 1487.5L2566.31 1487.89L2566.34 1487.87L2566.37 1487.83L2566 1487.5ZM2599 1450.5L2599.37 1450.83L2599.38 1450.82L2599.39 1450.81L2599 1450.5ZM2625.5 1417L2625.11 1416.68L2625.11 1416.69L2625.5 1417ZM2656 1379.5L2656.39 1379.82L2656.41 1379.78L2656.44 1379.75L2656 1379.5ZM2678.5 1339.5L2678.94 1339.75L2678.94 1339.73L2678.95 1339.72L2678.5 1339.5ZM2700 1294.5L2700.45 1294.72L2700.46 1294.71L2700.46 1294.7L2700 1294.5ZM2720.5 1247L2720.96 1247.2L2720.97 1247.17L2720.98 1247.14L2720.5 1247ZM2732.5 1204.5L2732.02 1204.35L2732.02 1204.36L2732.5 1204.5ZM2743 1170.5L2742.52 1170.35L2742.52 1170.35L2743 1170.5ZM2757.5 1124.5L2757.98 1124.65L2757.98 1124.64L2757.5 1124.5ZM2774 1068L2774.48 1068.14L2774.49 1068.11L2774.49 1068.08L2774 1068ZM2783.5 1011L2783.02 1010.86L2783.01 1010.89L2783.01 1010.92L2783.5 1011ZM2802.5 946L2802.02 945.86V945.86L2802.5 946ZM2814.5 905L2814.98 905.14L2814.98 905.125L2814.99 905.109L2814.5 905ZM2826 853.5L2825.54 853.306L2825.52 853.347L2825.51 853.391L2826 853.5ZM2846 806L2845.54 805.793L2845.54 805.799L2845.54 805.806L2846 806ZM2866.5 761L2866.06 760.758L2866.05 760.775L2866.04 760.793L2866.5 761ZM2874.5 746.5L2874.07 746.241L2874.07 746.249L2874.06 746.258L2874.5 746.5ZM2901.5 702L2901.1 701.703L2901.08 701.721L2901.07 701.741L2901.5 702ZM2928.5 665.5L2928.15 665.142L2928.12 665.17L2928.1 665.203L2928.5 665.5ZM2968.5 626.5L2968.16 626.135L2968.15 626.142L2968.5 626.5ZM3000 597L2999.75 596.566L2999.7 596.595L2999.66 596.635L3000 597ZM3045.5 571L3045.75 571.434L3045.76 571.43L3045.5 571ZM3090 544.5L3089.8 544.043L3089.77 544.055L3089.74 544.07L3090 544.5ZM3134 525L3133.84 524.527L3133.82 524.534L3133.8 524.543L3134 525ZM3183.5 508L3183.35 507.522L3183.35 507.524L3183.34 507.527L3183.5 508ZM3237.5 491.5L3237.4 491.011L3237.38 491.015L3237.35 491.022L3237.5 491.5ZM3280 482.5L3279.94 482.004L3279.92 482.006L3279.9 482.011L3280 482.5ZM3328.5 476.5L3328.44 476.003L3328.44 476.004L3328.5 476.5ZM3369 472V471.5H3368.97L3368.94 471.503L3369 472ZM3452 472L3452.03 471.501L3452.02 471.5H3452V472ZM3526.5 476.5L3526.57 476.006L3526.55 476.002L3526.53 476.001L3526.5 476.5ZM3625.5 491.5L3625.6 491.009L3625.59 491.007L3625.57 491.006L3625.5 491.5ZM3671.5 500.5L3671.63 500.017L3671.61 500.012L3671.6 500.009L3671.5 500.5ZM3730 516L3730.14 515.521L3730.14 515.519L3730.13 515.517L3730 516ZM3798.5 536.5L3798.36 536.979L3798.37 536.982L3798.38 536.985L3798.5 536.5ZM3860.5 552L3860.66 551.525L3860.64 551.519L3860.62 551.515L3860.5 552ZM3925.5 573.5L3925.67 573.031L3925.66 573.028L3925.66 573.025L3925.5 573.5ZM3959.5 586L3959.33 586.469L3959.34 586.473L3959.5 586ZM3988.5 596L3988.34 596.473L3988.36 596.482L3988.39 596.489L3988.5 596ZM4034.5 606L4034.7 605.542L4034.65 605.522L4034.61 605.511L4034.5 606ZM4050.5 613L4050.3 613.458L4050.31 613.465L4050.33 613.47L4050.5 613ZM4.28621 2443.91L30.7862 2425.41L30.2138 2424.59L3.71379 2443.09L4.28621 2443.91ZM30.7751 2425.42L73.2751 2397.42L72.7249 2396.58L30.2249 2424.58L30.7751 2425.42ZM73.2353 2397.44L118.235 2373.44L117.765 2372.56L72.7647 2396.56L73.2353 2397.44ZM118.242 2373.44L155.242 2352.94L154.758 2352.06L117.758 2372.56L118.242 2373.44ZM155.218 2352.95L201.718 2330.45L201.282 2329.55L154.782 2352.05L155.218 2352.95ZM201.729 2330.44L252.229 2304.44L251.771 2303.56L201.271 2329.56L201.729 2330.44ZM252.168 2304.47L304.168 2285.97L303.832 2285.03L251.832 2303.53L252.168 2304.47ZM304.172 2285.97L371.172 2261.47L370.828 2260.53L303.828 2285.03L304.172 2285.97ZM371.167 2261.47L417.667 2244.97L417.333 2244.03L370.833 2260.53L371.167 2261.47ZM417.595 2244.99L485.095 2231.99L484.905 2231.01L417.405 2244.01L417.595 2244.99ZM485.126 2231.98L535.126 2218.98L534.874 2218.02L484.874 2231.02L485.126 2231.98ZM535.072 2218.99L600.572 2209.49L600.428 2208.51L534.928 2218.01L535.072 2218.99ZM600.551 2209.5L708.551 2198.5L708.449 2197.5L600.449 2208.5L600.551 2209.5ZM708.528 2198.5L806.528 2193L806.472 2192L708.472 2197.5L708.528 2198.5ZM806.5 2193H852.5V2192H806.5V2193ZM852.5 2193H909V2192H852.5V2193ZM909.058 2193L956.058 2187.5L955.942 2186.5L908.942 2192L909.058 2193ZM956.047 2187.5L1003.55 2183L1003.45 2182L955.953 2186.5L956.047 2187.5ZM1003.54 2183L1076.04 2176.5L1075.96 2175.5L1003.46 2182L1003.54 2183ZM1076.07 2176.49L1130.57 2168.49L1130.43 2167.51L1075.93 2175.51L1076.07 2176.49ZM1130.57 2168.5L1178.57 2162L1178.43 2161L1130.43 2167.5L1130.57 2168.5ZM1178.6 2161.99L1227.1 2152.49L1226.9 2151.51L1178.4 2161.01L1178.6 2161.99ZM1227.1 2152.49L1281.1 2141.49L1280.9 2140.51L1226.9 2151.51L1227.1 2152.49ZM1281.15 2141.48L1347.15 2120.98L1346.85 2120.02L1280.85 2140.52L1281.15 2141.48ZM1347.13 2120.98L1400.13 2106.48L1399.87 2105.52L1346.87 2120.02L1347.13 2120.98ZM1400.14 2106.48L1460.14 2089.48L1459.86 2088.52L1399.86 2105.52L1400.14 2106.48ZM1460.16 2089.47L1495.66 2077.47L1495.34 2076.53L1459.84 2088.53L1460.16 2089.47ZM1495.7 2077.46L1536.2 2059.46L1535.8 2058.54L1495.3 2076.54L1495.7 2077.46ZM1536.18 2059.47L1582.68 2041.47L1582.32 2040.53L1535.82 2058.53L1536.18 2059.47ZM1582.7 2041.46L1630.7 2019.96L1630.3 2019.04L1582.3 2040.54L1582.7 2041.46ZM1630.69 2019.96L1679.19 1999.96L1678.81 1999.04L1630.31 2019.04L1630.69 2019.96ZM1679.18 1999.96L1744.68 1973.96L1744.32 1973.04L1678.82 1999.04L1679.18 1999.96ZM1744.73 1973.94L1809.73 1939.94L1809.27 1939.06L1744.27 1973.06L1744.73 1973.94ZM1809.7 1939.96L1869.2 1914.46L1868.8 1913.54L1809.3 1939.04L1809.7 1939.96ZM1869.23 1914.44L1925.23 1884.94L1924.77 1884.06L1868.77 1913.56L1869.23 1914.44ZM1925.24 1884.94L1970.74 1859.44L1970.26 1858.56L1924.76 1884.06L1925.24 1884.94ZM1970.74 1859.44L2029.24 1827.94L2028.76 1827.06L1970.26 1858.56L1970.74 1859.44ZM2029.24 1827.94L2087.74 1796.44L2087.26 1795.56L2028.76 1827.06L2029.24 1827.94ZM2087.76 1796.43L2150.26 1758.93L2149.74 1758.07L2087.24 1795.57L2087.76 1796.43ZM2150.24 1758.94L2196.74 1733.44L2196.26 1732.56L2149.76 1758.06L2150.24 1758.94ZM2196.76 1733.43L2249.26 1700.93L2248.74 1700.07L2196.24 1732.57L2196.76 1733.43ZM2249.24 1700.94L2314.74 1664.94L2314.26 1664.06L2248.76 1700.06L2249.24 1700.94ZM2314.77 1664.92L2363.77 1632.92L2363.23 1632.08L2314.23 1664.08L2314.77 1664.92ZM2363.78 1632.92L2395.28 1611.92L2394.72 1611.08L2363.22 1632.08L2363.78 1632.92ZM2395.25 1611.93L2439.25 1585.93L2438.75 1585.07L2394.75 1611.07L2395.25 1611.93ZM2439.29 1585.91L2487.79 1551.91L2487.21 1551.09L2438.71 1585.09L2439.29 1585.91ZM2487.82 1551.88L2524.82 1520.38L2524.18 1519.62L2487.18 1551.12L2487.82 1551.88ZM2524.81 1520.39L2566.31 1487.89L2565.69 1487.11L2524.19 1519.61L2524.81 1520.39ZM2566.37 1487.83L2599.37 1450.83L2598.63 1450.17L2565.63 1487.17L2566.37 1487.83ZM2599.39 1450.81L2625.89 1417.31L2625.11 1416.69L2598.61 1450.19L2599.39 1450.81ZM2625.89 1417.32L2656.39 1379.82L2655.61 1379.18L2625.11 1416.68L2625.89 1417.32ZM2656.44 1379.75L2678.94 1339.75L2678.06 1339.25L2655.56 1379.25L2656.44 1379.75ZM2678.95 1339.72L2700.45 1294.72L2699.55 1294.28L2678.05 1339.28L2678.95 1339.72ZM2700.46 1294.7L2720.96 1247.2L2720.04 1246.8L2699.54 1294.3L2700.46 1294.7ZM2720.98 1247.14L2732.98 1204.64L2732.02 1204.36L2720.02 1246.86L2720.98 1247.14ZM2732.98 1204.65L2743.48 1170.65L2742.52 1170.35L2732.02 1204.35L2732.98 1204.65ZM2743.48 1170.65L2757.98 1124.65L2757.02 1124.35L2742.52 1170.35L2743.48 1170.65ZM2757.98 1124.64L2774.48 1068.14L2773.52 1067.86L2757.02 1124.36L2757.98 1124.64ZM2774.49 1068.08L2783.99 1011.08L2783.01 1010.92L2773.51 1067.92L2774.49 1068.08ZM2783.98 1011.14L2802.98 946.14L2802.02 945.86L2783.02 1010.86L2783.98 1011.14ZM2802.98 946.14L2814.98 905.14L2814.02 904.86L2802.02 945.86L2802.98 946.14ZM2814.99 905.109L2826.49 853.609L2825.51 853.391L2814.01 904.891L2814.99 905.109ZM2826.46 853.694L2846.46 806.194L2845.54 805.806L2825.54 853.306L2826.46 853.694ZM2846.46 806.207L2866.96 761.207L2866.04 760.793L2845.54 805.793L2846.46 806.207ZM2866.94 761.242L2874.94 746.742L2874.06 746.258L2866.06 760.758L2866.94 761.242ZM2874.93 746.759L2901.93 702.259L2901.07 701.741L2874.07 746.241L2874.93 746.759ZM2901.9 702.297L2928.9 665.797L2928.1 665.203L2901.1 701.703L2901.9 702.297ZM2928.85 665.858L2968.85 626.858L2968.15 626.142L2928.15 665.142L2928.85 665.858ZM2968.84 626.865L3000.34 597.365L2999.66 596.635L2968.16 626.135L2968.84 626.865ZM3000.25 597.434L3045.75 571.434L3045.25 570.566L2999.75 596.566L3000.25 597.434ZM3045.76 571.43L3090.26 544.93L3089.74 544.07L3045.24 570.57L3045.76 571.43ZM3090.2 544.957L3134.2 525.457L3133.8 524.543L3089.8 544.043L3090.2 544.957ZM3134.16 525.473L3183.66 508.473L3183.34 507.527L3133.84 524.527L3134.16 525.473ZM3183.65 508.478L3237.65 491.978L3237.35 491.022L3183.35 507.522L3183.65 508.478ZM3237.6 491.989L3280.1 482.989L3279.9 482.011L3237.4 491.011L3237.6 491.989ZM3280.06 482.996L3328.56 476.996L3328.44 476.004L3279.94 482.004L3280.06 482.996ZM3328.56 476.997L3369.06 472.497L3368.94 471.503L3328.44 476.003L3328.56 476.997ZM3369 472.5H3393V471.5H3369V472.5ZM3393 472.5H3452V471.5H3393V472.5ZM3451.97 472.499L3526.47 476.999L3526.53 476.001L3452.03 471.501L3451.97 472.499ZM3526.43 476.994L3625.43 491.994L3625.57 491.006L3526.57 476.006L3526.43 476.994ZM3625.4 491.991L3671.4 500.991L3671.6 500.009L3625.6 491.009L3625.4 491.991ZM3671.37 500.983L3729.87 516.483L3730.13 515.517L3671.63 500.017L3671.37 500.983ZM3729.86 516.479L3798.36 536.979L3798.64 536.021L3730.14 515.521L3729.86 516.479ZM3798.38 536.985L3860.38 552.485L3860.62 551.515L3798.62 536.015L3798.38 536.985ZM3860.34 552.475L3925.34 573.975L3925.66 573.025L3860.66 551.525L3860.34 552.475ZM3925.33 573.969L3959.33 586.469L3959.67 585.531L3925.67 573.031L3925.33 573.969ZM3959.34 586.473L3988.34 596.473L3988.66 595.527L3959.66 585.527L3959.34 586.473ZM3988.39 596.489L4034.39 606.489L4034.61 605.511L3988.61 595.511L3988.39 596.489ZM4034.3 606.458L4050.3 613.458L4050.7 612.542L4034.7 605.542L4034.3 606.458ZM4050.33 613.47L4062.83 617.97L4063.17 617.03L4050.67 612.53L4050.33 613.47Z" fill="#F7F7F7"/>
<path d="M1.33333 1761C1.33333 1762.47 2.52724 1763.67 4 1763.67C5.47276 1763.67 6.66667 1762.47 6.66667 1761C6.66667 1759.53 5.47276 1758.33 4 1758.33C2.52724 1758.33 1.33333 1759.53 1.33333 1761ZM32.5 1748.5L32.7008 1748.96L32.7077 1748.95L32.7145 1748.95L32.5 1748.5ZM52.5 1739L52.3107 1738.54L52.2979 1738.54L52.2855 1738.55L52.5 1739ZM74.5 1730L74.334 1729.53L74.3223 1729.53L74.3107 1729.54L74.5 1730ZM101.5 1720.5L101.666 1720.97L101.68 1720.97L101.695 1720.96L101.5 1720.5ZM137 1705.5L136.825 1705.03L136.815 1705.04L136.805 1705.04L137 1705.5ZM166.5 1694.5L166.379 1694.01L166.352 1694.02L166.325 1694.03L166.5 1694.5ZM210.5 1683.5L210.621 1683.99L210.646 1683.98L210.67 1683.97L210.5 1683.5ZM245 1671L244.87 1670.52L244.849 1670.52L244.83 1670.53L245 1671ZM289.5 1659L289.381 1658.51L289.37 1658.52L289.5 1659ZM320 1651.5L319.907 1651.01L319.894 1651.01L319.881 1651.01L320 1651.5ZM359.5 1644L359.415 1643.51L359.407 1643.51L359.5 1644ZM400 1637L399.929 1636.5L399.915 1636.51L400 1637ZM459 1628.5V1628H458.964L458.929 1628.01L459 1628.5ZM503 1628.5V1629H503.036L503.072 1628.99L503 1628.5ZM547.5 1622V1621.5H547.464L547.428 1621.51L547.5 1622ZM655.5 1622V1622.5H655.538L655.576 1622.49L655.5 1622ZM704.5 1614.5L704.451 1614L704.438 1614L704.424 1614.01L704.5 1614.5ZM775.5 1607.5L775.549 1608L775.558 1608L775.567 1608L775.5 1607.5ZM831 1600L831.067 1600.5L831.077 1600.49L831.088 1600.49L831 1600ZM901 1587.5L901.088 1587.99L901.106 1587.99L901.123 1587.98L901 1587.5ZM954 1574L954.123 1574.48L954.135 1574.48L954.147 1574.48L954 1574ZM998 1560.5L998.147 1560.98L998.162 1560.97L998.178 1560.97L998 1560.5ZM1033.5 1547L1033.68 1547.47L1033.71 1547.45L1033.75 1547.44L1033.5 1547ZM1065.5 1529L1065.3 1528.54L1065.27 1528.55L1065.25 1528.56L1065.5 1529ZM1110 1509L1110.2 1509.46L1110.23 1509.44L1110.26 1509.43L1110 1509ZM1153 1483.5L1153.26 1483.93L1153.29 1483.91L1153.31 1483.89L1153 1483.5ZM1189.5 1454L1189.81 1454.39L1189.84 1454.37L1189.87 1454.34L1189.5 1454ZM1224 1417L1223.67 1416.62L1223.65 1416.64L1223.63 1416.66L1224 1417ZM1264.5 1381.5L1264.83 1381.88L1264.85 1381.86L1264.87 1381.84L1264.5 1381.5ZM1296.5 1347L1296.15 1346.64L1296.14 1346.65L1296.13 1346.66L1296.5 1347ZM1334.5 1310L1334.85 1310.36L1334.88 1310.33L1334.9 1310.3L1334.5 1310ZM1363 1272L1362.61 1271.69L1362.6 1271.69L1362.6 1271.7L1363 1272ZM1396 1230.5L1396.39 1230.81L1396.4 1230.8L1396.42 1230.78L1396 1230.5ZM1426.5 1185L1426.11 1184.68L1426.1 1184.7L1426.08 1184.72L1426.5 1185ZM1456 1149L1456.39 1149.32L1456.4 1149.31L1456.4 1149.3L1456 1149ZM1482 1113.5L1482.4 1113.8L1482.41 1113.78L1482.42 1113.77L1482 1113.5ZM1504 1079L1503.61 1078.69L1503.59 1078.71L1503.58 1078.73L1504 1079ZM1536 1038.5L1535.61 1038.19L1535.61 1038.19L1536 1038.5ZM1564.5 1003L1564.89 1003.31L1564.9 1003.3L1564.5 1003ZM1591.5 967.5L1591.11 967.19L1591.1 967.197L1591.5 967.5ZM1619.5 932L1619.12 931.676L1619.11 931.683L1619.11 931.69L1619.5 932ZM1654 891.5L1653.68 891.12L1653.65 891.145L1653.62 891.176L1654 891.5ZM1684.5 865.5L1684.82 865.88L1684.83 865.875L1684.84 865.87L1684.5 865.5ZM1722.5 831L1722.18 830.616L1722.17 830.623L1722.16 830.63L1722.5 831ZM1762 798L1761.73 797.58L1761.7 797.597L1761.68 797.616L1762 798ZM1807.5 768.5L1807.77 768.92L1807.77 768.918L1807.5 768.5ZM1847 742.5L1846.79 742.045L1846.76 742.061L1846.73 742.082L1847 742.5ZM1887.5 724L1887.32 723.535L1887.3 723.54L1887.29 723.545L1887.5 724ZM1939 703.5L1938.83 703.03L1938.82 703.033L1938.82 703.035L1939 703.5ZM1987 686L1986.87 685.518L1986.85 685.523L1986.83 685.53L1987 686ZM2036 672.5L2036.13 672.982L2036.14 672.981L2036 672.5ZM2101 654L2101.14 654.481L2101.15 654.476L2101.17 654.471L2101 654ZM2151.5 636L2151.67 636.471L2151.68 636.467L2151.5 636ZM2199.5 617.5L2199.68 617.967L2199.69 617.963L2199.7 617.959L2199.5 617.5ZM2256 593L2256.2 593.459L2256.22 593.45L2256.24 593.438L2256 593ZM2292.5 573L2292.74 573.439L2292.75 573.432L2292.5 573ZM2326 553.5L2326.25 553.932L2326.3 553.904L2326.34 553.865L2326 553.5ZM2364 518L2363.66 517.634L2363.66 517.635L2364 518ZM2414.5 471L2414.84 471.366L2414.88 471.332L2414.91 471.292L2414.5 471ZM2440 435.5L2439.61 435.189L2439.6 435.198L2439.59 435.208L2440 435.5ZM2471 396.5L2471.39 396.811L2471.4 396.795L2471.42 396.777L2471 396.5ZM2494 362L2494.42 362.277L2494.42 362.271L2494 362ZM2525 314L2525.42 314.271L2525.43 314.259L2525.43 314.247L2525 314ZM2548 273.5L2547.58 273.234L2547.57 273.243L2547.57 273.253L2548 273.5ZM2575 230.5L2575.42 230.766L2575.43 230.758L2575 230.5ZM2607 177.5L2607.43 177.758L2607.43 177.758L2607 177.5ZM2636.5 128.5L2636.09 128.212L2636.08 128.227L2636.07 128.242L2636.5 128.5ZM2668.5 83L2668.1 82.7038L2668.09 82.7124L2668.5 83ZM2699 41.5L2698.62 41.1767L2698.61 41.1899L2698.6 41.2039L2699 41.5ZM2724 12L2723.62 11.6732L2723.62 11.6767L2724 12ZM4.20083 1761.46L32.7008 1748.96L32.2992 1748.04L3.79917 1760.54L4.20083 1761.46ZM32.7145 1748.95L52.7145 1739.45L52.2855 1738.55L32.2855 1748.05L32.7145 1748.95ZM52.6893 1739.46L74.6893 1730.46L74.3107 1729.54L52.3107 1738.54L52.6893 1739.46ZM74.666 1730.47L101.666 1720.97L101.334 1720.03L74.334 1729.53L74.666 1730.47ZM101.695 1720.96L137.195 1705.96L136.805 1705.04L101.305 1720.04L101.695 1720.96ZM137.175 1705.97L166.675 1694.97L166.325 1694.03L136.825 1705.03L137.175 1705.97ZM166.621 1694.99L210.621 1683.99L210.379 1683.01L166.379 1694.01L166.621 1694.99ZM210.67 1683.97L245.17 1671.47L244.83 1670.53L210.33 1683.03L210.67 1683.97ZM245.13 1671.48L289.63 1659.48L289.37 1658.52L244.87 1670.52L245.13 1671.48ZM289.619 1659.49L320.119 1651.99L319.881 1651.01L289.381 1658.51L289.619 1659.49ZM320.093 1651.99L359.593 1644.49L359.407 1643.51L319.907 1651.01L320.093 1651.99ZM359.585 1644.49L400.085 1637.49L399.915 1636.51L359.415 1643.51L359.585 1644.49ZM400.071 1637.49L459.071 1628.99L458.929 1628.01L399.929 1636.51L400.071 1637.49ZM459 1629H503V1628H459V1629ZM503.072 1628.99L547.572 1622.49L547.428 1621.51L502.928 1628.01L503.072 1628.99ZM547.5 1622.5H588V1621.5H547.5V1622.5ZM588 1622.5H622V1621.5H588V1622.5ZM622 1622.5H655.5V1621.5H622V1622.5ZM655.576 1622.49L704.576 1614.99L704.424 1614.01L655.424 1621.51L655.576 1622.49ZM704.549 1615L775.549 1608L775.451 1607L704.451 1614L704.549 1615ZM775.567 1608L831.067 1600.5L830.933 1599.5L775.433 1607L775.567 1608ZM831.088 1600.49L901.088 1587.99L900.912 1587.01L830.912 1599.51L831.088 1600.49ZM901.123 1587.98L954.123 1574.48L953.877 1573.52L900.877 1587.02L901.123 1587.98ZM954.147 1574.48L998.147 1560.98L997.853 1560.02L953.853 1573.52L954.147 1574.48ZM998.178 1560.97L1033.68 1547.47L1033.32 1546.53L997.822 1560.03L998.178 1560.97ZM1033.75 1547.44L1065.75 1529.44L1065.25 1528.56L1033.25 1546.56L1033.75 1547.44ZM1065.7 1529.46L1110.2 1509.46L1109.8 1508.54L1065.3 1528.54L1065.7 1529.46ZM1110.26 1509.43L1153.26 1483.93L1152.74 1483.07L1109.74 1508.57L1110.26 1509.43ZM1153.31 1483.89L1189.81 1454.39L1189.19 1453.61L1152.69 1483.11L1153.31 1483.89ZM1189.87 1454.34L1224.37 1417.34L1223.63 1416.66L1189.13 1453.66L1189.87 1454.34ZM1224.33 1417.38L1264.83 1381.88L1264.17 1381.12L1223.67 1416.62L1224.33 1417.38ZM1264.87 1381.84L1296.87 1347.34L1296.13 1346.66L1264.13 1381.16L1264.87 1381.84ZM1296.85 1347.36L1334.85 1310.36L1334.15 1309.64L1296.15 1346.64L1296.85 1347.36ZM1334.9 1310.3L1363.4 1272.3L1362.6 1271.7L1334.1 1309.7L1334.9 1310.3ZM1363.39 1272.31L1396.39 1230.81L1395.61 1230.19L1362.61 1271.69L1363.39 1272.31ZM1396.42 1230.78L1426.92 1185.28L1426.08 1184.72L1395.58 1230.22L1396.42 1230.78ZM1426.89 1185.32L1456.39 1149.32L1455.61 1148.68L1426.11 1184.68L1426.89 1185.32ZM1456.4 1149.3L1482.4 1113.8L1481.6 1113.2L1455.6 1148.7L1456.4 1149.3ZM1482.42 1113.77L1504.42 1079.27L1503.58 1078.73L1481.58 1113.23L1482.42 1113.77ZM1504.39 1079.31L1536.39 1038.81L1535.61 1038.19L1503.61 1078.69L1504.39 1079.31ZM1536.39 1038.81L1564.89 1003.31L1564.11 1002.69L1535.61 1038.19L1536.39 1038.81ZM1564.9 1003.3L1591.9 967.803L1591.1 967.197L1564.1 1002.7L1564.9 1003.3ZM1591.89 967.81L1619.89 932.31L1619.11 931.69L1591.11 967.19L1591.89 967.81ZM1619.88 932.324L1654.38 891.824L1653.62 891.176L1619.12 931.676L1619.88 932.324ZM1654.32 891.88L1684.82 865.88L1684.18 865.12L1653.68 891.12L1654.32 891.88ZM1684.84 865.87L1722.84 831.37L1722.16 830.63L1684.16 865.13L1684.84 865.87ZM1722.82 831.384L1762.32 798.384L1761.68 797.616L1722.18 830.616L1722.82 831.384ZM1762.27 798.42L1807.77 768.92L1807.23 768.08L1761.73 797.58L1762.27 798.42ZM1807.77 768.918L1847.27 742.918L1846.73 742.082L1807.23 768.082L1807.77 768.918ZM1847.21 742.955L1887.71 724.455L1887.29 723.545L1846.79 742.045L1847.21 742.955ZM1887.68 724.465L1939.18 703.965L1938.82 703.035L1887.32 723.535L1887.68 724.465ZM1939.17 703.97L1987.17 686.47L1986.83 685.53L1938.83 703.03L1939.17 703.97ZM1987.13 686.482L2036.13 672.982L2035.87 672.018L1986.87 685.518L1987.13 686.482ZM2036.14 672.981L2101.14 654.481L2100.86 653.519L2035.86 672.019L2036.14 672.981ZM2101.17 654.471L2151.67 636.471L2151.33 635.529L2100.83 653.529L2101.17 654.471ZM2151.68 636.467L2199.68 617.967L2199.32 617.033L2151.32 635.533L2151.68 636.467ZM2199.7 617.959L2256.2 593.459L2255.8 592.541L2199.3 617.041L2199.7 617.959ZM2256.24 593.438L2292.74 573.438L2292.26 572.562L2255.76 592.562L2256.24 593.438ZM2292.75 573.432L2326.25 553.932L2325.75 553.068L2292.25 572.568L2292.75 573.432ZM2326.34 553.865L2364.34 518.365L2363.66 517.635L2325.66 553.135L2326.34 553.865ZM2364.34 518.366L2414.84 471.366L2414.16 470.634L2363.66 517.634L2364.34 518.366ZM2414.91 471.292L2440.41 435.792L2439.59 435.208L2414.09 470.708L2414.91 471.292ZM2440.39 435.811L2471.39 396.811L2470.61 396.189L2439.61 435.189L2440.39 435.811ZM2471.42 396.777L2494.42 362.277L2493.58 361.723L2470.58 396.223L2471.42 396.777ZM2494.42 362.271L2525.42 314.271L2524.58 313.729L2493.58 361.729L2494.42 362.271ZM2525.43 314.247L2548.43 273.747L2547.57 273.253L2524.57 313.753L2525.43 314.247ZM2548.42 273.766L2575.42 230.766L2574.58 230.234L2547.58 273.234L2548.42 273.766ZM2575.43 230.758L2607.43 177.758L2606.57 177.242L2574.57 230.242L2575.43 230.758ZM2607.43 177.758L2636.93 128.758L2636.07 128.242L2606.57 177.242L2607.43 177.758ZM2636.91 128.788L2668.91 83.2876L2668.09 82.7124L2636.09 128.212L2636.91 128.788ZM2668.9 83.2961L2699.4 41.7961L2698.6 41.2039L2668.1 82.7039L2668.9 83.2961ZM2699.38 41.8233L2724.38 12.3233L2723.62 11.6767L2698.62 41.1767L2699.38 41.8233ZM2724.38 12.3268L2733.88 1.32681L2733.12 0.67319L2723.62 11.6732L2724.38 12.3268Z" fill="#EFEFEF"/>
</svg>
