<svg width="841" height="600" viewBox="0 0 841 600" fill="none" xmlns="http://www.w3.org/2000/svg">
<rect x="0" width="839" height="600" fill="#3C3C3B"/>
<path d="M1 123L6 119.5L15.5 115.5L26 111.5L42 106.5L58.5 102L72 98L84 94.5L98 91.5L110 89.5L129 86.5L147.5 85.5L163 86.5L173 88.5L185 91.5L203.5 98L211.5 101.5L219.5 106L226.5 111L233 117L240.5 124L246.5 132.5L252 141L257 151L261 160L264 168.5L267 179.5L270 191.5L272.5 204L274 210L277 221L281.5 235.5L286 247.5L294 263.5L299 270L307 280L316 289L327.5 297.5L342.5 309L353.5 316.5L362.5 321.5L372 327L386.5 335L402 344.5L414 351.5L426.5 358L441.5 366L457 374L470 380.5L481 386L491 389.5L508.5 397L520.5 401.5L534 406L550 411.5L564.5 415L578 418L592.5 421L603 423L613.5 424L634 425.5H648L671 426.5L686 428L706 430L719 432.5L729 434.5L742.5 438L752.5 442L768 447.5L779.5 453L792 459L802 464L815 473L826.5 480.5L834.5 487.5L840 492" stroke="#D9D2D2" stroke-dasharray="2 2"/>
<path d="M1 228.5L6.5 224.5L14.5 220L23.5 215L36 209.5L45 206L54 203.5L63.5 202L75 200.5H83.5L94 202L104.5 206L116 212L123.5 217.5L130.5 224.5L137.5 233.5L143.5 242L149 253L154 263.5L158.5 272.5L163 283.5L167.5 293L173 302.5L178 311L183 318L189.5 324.5L203 336.5L211.5 343.5L222 349.5L232 354L245 358.5L255.5 361.5L274 366L292.5 369.5L308.5 372.5L326.5 375.5L340 377.5L354.5 381L365.5 383.5L380.5 387.5L401 395L416 402.5L430.5 409.5L439.5 415L447.5 419.5L455.5 425.5L463.5 430.5L473 438L485 448L495 458.5L505.5 468.5L518 481.5L527.5 488.5L537 495L547 498.5L557 500H569.5L581 498.5L594 495L609 491L623.5 488.5L637.5 485L650 481.5L659.5 480L674 478L687.5 476L701.5 473.5H709L726 471.5H738H749.5L764.5 473.5L779.5 476L792 478L804.5 482.5L818 487L830 492.5L837.5 497L839.5 499.5" stroke="#C5C5C5" stroke-dasharray="2 2"/>
<path d="M1 263L10 257.5L23 249L35.5 244L47.5 240L58.5 236.5L69 234.5H79L91.5 236.5L105.5 240L114 244L122 249L132 259.5L139.5 270.5L148.5 287L155.5 300.5L164 319L171.5 335L181.5 348.5L191 361L201.5 370.5L214 378L227.5 385.5L241.5 391.5L261.5 398L282 402.5L297.5 405L322.5 409.5L351 414.5L369.5 419L386 423.5L400.5 429L415.5 436.5L434.5 445.5L447 453.5L462 463.5L474 473L485 483L499 495.5L508 505.5L519 516.5L531.5 526L543 531L555 533.5H568L585 531L613.5 526L632 520L648 516.5L685 510.5L717 507H736.5H752.5H770.5L786.5 510.5L804 516.5L817.5 522L832 528.5L839.5 533.5" stroke="#C5C5C5" stroke-dasharray="2 2"/>
<path d="M280.5 0.5L288.5 14L300 33.5L311 52L323 70.5L337 88.5L352 105L360 112L373 119.5L388.5 124.5L408.5 131.5L428.5 138L445 144L455.5 148L465.5 155L475.5 163.5L493 178.5L502.5 191L523.5 219L541.5 245L554 260L565 272L575 282.5L590.5 294.5L605 301.5L620.5 309L642 315.5L663.5 319H685.5L713 322H735L751 326L769.5 331L786 335.5L807.5 342L816 347L840 362" stroke="#C5C5C5" stroke-dasharray="2 2"/>
</svg>
