<svg width="797" height="422" viewBox="0 0 797 422" fill="none" xmlns="http://www.w3.org/2000/svg">
<path d="M1 383L27 364L61 346L91 335L122 328H150L184 323H221L292 305L375 268L452 224L482 204L511 176L522 155L533 126L541 90L549 60L565 40L580 27L605 13L627 6L654 1L682 6L718 13L754 21L782 34L792 40" stroke="black"/>
<path d="M4 421L30 409L77 400H132L196 414L251 421H281L311 400L340 370L364 351L397 334L435 320L476 309L532 299L585 283L618 260L635 232L645 204L664 172L684 154L718 143L748 149L780 164L796 172" stroke="black"/>
</svg>
